<svg width="1920" height="1080" viewBox="0 0 1920 1080" fill="none" xmlns="http://www.w3.org/2000/svg">
<path fill-rule="evenodd" clip-rule="evenodd" d="M1920 0H0V1080H1920V0ZM613.625 509H645.5C673.125 509 689.812 491.938 689.75 463.625C689.812 435.438 673.125 418.5 645.875 418.5H613.625V509ZM644.75 492.875H632.375V434.625H644.875C662 434.625 671 443.5 671 463.625C671 483.938 662 492.875 644.75 492.875ZM744 510.25C767.938 510.25 786.25 493.312 786.25 463.75C786.25 434.188 767.938 417.25 744 417.25C719.875 417.25 701.625 434.188 701.625 463.75C701.625 493.188 719.875 510.25 744 510.25ZM744 493.625C729.938 493.562 720.75 483.062 720.75 463.75C720.75 444.375 729.938 433.938 744 433.875C757.938 433.938 767.188 444.375 767.125 463.75C767.188 483.062 757.938 493.562 744 493.625ZM809.875 418.5H788.75L821.75 476.75V509H840.5V476.75L873.5 418.5H852.375L831.625 457.5H830.75L809.875 418.5ZM918.375 510.25C942.312 510.25 960.625 493.312 960.625 463.75C960.625 434.188 942.312 417.25 918.375 417.25C894.25 417.25 876 434.188 876 463.75C876 493.188 894.25 510.25 918.375 510.25ZM918.375 493.625C904.312 493.562 895.125 483.062 895.125 463.75C895.125 444.375 904.312 433.938 918.375 433.875C932.312 433.938 941.562 444.375 941.5 463.75C941.562 483.062 932.312 493.562 918.375 493.625ZM1049 418.5H1030.12V475.75C1030.19 486.188 1022.81 493.688 1011.5 493.75C1000.31 493.688 992.938 486.188 992.875 475.75V418.5H974.125V477.25C974.125 497.062 989 510.312 1011.5 510.25C1033.94 510.312 1049 497.062 1049 477.25V418.5ZM1123.5 509H1139.75V418.5H1121.12V476H1120.25L1080.75 418.5H1064.25V509H1083V451.5H1083.75L1123.5 509ZM1195.88 433.875C1205.75 433.938 1212.56 439.125 1215.12 447.625H1234.12C1231.62 429.812 1215.94 417.25 1195.5 417.25C1171.62 417.25 1153.25 434.5 1153.25 463.875C1153.25 492.5 1170.5 510.25 1195.88 510.25C1218.69 510.25 1235 495.75 1235 472V460.75H1197.25V474.875H1216.88C1216.62 486.25 1208.94 493.562 1196 493.625C1181.56 493.562 1172.38 482.75 1172.38 463.625C1172.38 444.625 1181.88 433.938 1195.88 433.875ZM613.625 571.5V662H632.375V632.5H648.625C669.5 632.5 681.5 620.062 681.5 602C681.5 584.188 669.688 571.5 649.125 571.5H613.625ZM645.625 617.375H632.375V586.875H645.625C656.75 586.938 662.188 593 662.125 602C662.188 611.125 656.75 617.375 645.625 617.375ZM734 663.25C757.938 663.25 776.25 646.312 776.25 616.75C776.25 587.188 757.938 570.25 734 570.25C709.875 570.25 691.625 587.188 691.625 616.75C691.625 646.188 709.875 663.25 734 663.25ZM734 646.625C719.938 646.562 710.75 636.062 710.75 616.75C710.75 597.375 719.938 586.938 734 586.875C747.938 586.938 757.188 597.375 757.125 616.75C757.188 636.062 747.938 646.562 734 646.625ZM825.25 571.5H789.75V662H808.5V629.875H822.812L840.125 662H860.875L841.625 626.812C851.938 622.375 857.625 613.375 857.625 601C857.625 583.062 845.812 571.5 825.25 571.5ZM821.75 614.625H808.5V586.875H821.75C832.875 586.938 838.312 591.875 838.25 601C838.312 610.062 832.875 614.625 821.75 614.625ZM867.125 571.5V587H894.875V662H913.5V587H941.25V571.5H867.125ZM1012.5 571.5H952.875V662H971.625V624.5H1008.62V609H971.625V587H1012.5V571.5ZM1065.5 663.25C1089.44 663.25 1107.75 646.312 1107.75 616.75C1107.75 587.188 1089.44 570.25 1065.5 570.25C1041.38 570.25 1023.12 587.188 1023.12 616.75C1023.12 646.188 1041.38 663.25 1065.5 663.25ZM1065.5 646.625C1051.44 646.562 1042.25 636.062 1042.25 616.75C1042.25 597.375 1051.44 586.938 1065.5 586.875C1079.44 586.938 1088.69 597.375 1088.62 616.75C1088.69 636.062 1079.44 646.562 1065.5 646.625ZM1140 571.5H1121.25V662H1179V646.5H1140V571.5ZM1191.12 662H1209.88V571.5H1191.12V662ZM1265.75 663.25C1289.69 663.25 1308 646.312 1308 616.75C1308 587.188 1289.69 570.25 1265.75 570.25C1241.62 570.25 1223.38 587.188 1223.38 616.75C1223.38 646.188 1241.62 663.25 1265.75 663.25ZM1265.75 646.625C1251.69 646.562 1242.5 636.062 1242.5 616.75C1242.5 597.375 1251.69 586.938 1265.75 586.875C1279.69 586.938 1288.94 597.375 1288.88 616.75C1288.94 636.062 1279.69 646.562 1265.75 646.625Z" fill="black"/>
<path fill-rule="evenodd" clip-rule="evenodd" d="M689.125 463.375C689.188 435.188 672.5 418.25 645.25 418.25H613V508.75H644.875C672.5 508.75 689.188 491.688 689.125 463.375ZM670.375 463.375C670.375 483.688 661.375 492.625 644.125 492.625H631.75V434.375H644.25C661.375 434.375 670.375 443.25 670.375 463.375ZM743.375 510C767.312 510 785.625 493.062 785.625 463.5C785.625 433.938 767.312 417 743.375 417C719.25 417 701 433.938 701 463.5C701 492.938 719.25 510 743.375 510ZM743.375 493.375C729.312 493.312 720.125 482.812 720.125 463.5C720.125 444.125 729.312 433.688 743.375 433.625C757.312 433.688 766.562 444.125 766.5 463.5C766.562 482.812 757.312 493.312 743.375 493.375ZM680.875 601.75C680.875 583.938 669.062 571.25 648.5 571.25H613V661.75H631.75V632.25H648C668.875 632.25 680.875 619.812 680.875 601.75ZM661.5 601.75C661.562 610.875 656.125 617.125 645 617.125H631.75V586.625H645C656.125 586.688 661.562 592.75 661.5 601.75ZM733.375 663C757.312 663 775.625 646.062 775.625 616.5C775.625 586.938 757.312 570 733.375 570C709.25 570 691 586.938 691 616.5C691 645.938 709.25 663 733.375 663ZM733.375 646.375C719.312 646.312 710.125 635.812 710.125 616.5C710.125 597.125 719.312 586.688 733.375 586.625C747.312 586.688 756.562 597.125 756.5 616.5C756.562 635.812 747.312 646.312 733.375 646.375ZM857 600.75C857 582.812 845.188 571.25 824.625 571.25H789.125V661.75H807.875V629.625H822.188L839.5 661.75H860.25L841 626.562C851.312 622.125 857 613.125 857 600.75ZM837.625 600.75C837.688 609.812 832.25 614.375 821.125 614.375H807.875V586.625H821.125C832.25 586.688 837.688 591.625 837.625 600.75ZM1064.88 663C1088.81 663 1107.12 646.062 1107.12 616.5C1107.12 586.938 1088.81 570 1064.88 570C1040.75 570 1022.5 586.938 1022.5 616.5C1022.5 645.938 1040.75 663 1064.88 663ZM1064.88 646.375C1050.81 646.312 1041.62 635.812 1041.62 616.5C1041.62 597.125 1050.81 586.688 1064.88 586.625C1078.81 586.688 1088.06 597.125 1088 616.5C1088.06 635.812 1078.81 646.312 1064.88 646.375ZM1265.12 663C1289.06 663 1307.38 646.062 1307.38 616.5C1307.38 586.938 1289.06 570 1265.12 570C1241 570 1222.75 586.938 1222.75 616.5C1222.75 645.938 1241 663 1265.12 663ZM1265.12 646.375C1251.06 646.312 1241.88 635.812 1241.88 616.5C1241.88 597.125 1251.06 586.688 1265.12 586.625C1279.06 586.688 1288.31 597.125 1288.25 616.5C1288.31 635.812 1279.06 646.312 1265.12 646.375ZM866.5 571.25V586.75H894.25V661.75H912.875V586.75H940.625V571.25H866.5ZM1011.88 571.25H952.25V661.75H971V624.25H1008V608.75H971V586.75H1011.88V571.25ZM1139.38 571.25H1120.62V661.75H1178.38V646.25H1139.38V571.25ZM1190.5 661.75H1209.25V571.25H1190.5V661.75Z" fill="white"/>
</svg>
