<svg width="152" height="102" viewBox="0 0 152 102" fill="none" xmlns="http://www.w3.org/2000/svg">
<g clip-path="url(#clip0_9_86)">
<path d="M108.03 79.11H52V9.06C52 5.44 54.94 2.5 58.56 2.5H142.54C146.16 2.5 149.1 5.44 149.1 9.06V72.54C149.1 76.16 146.16 79.1 142.54 79.1H137.67" stroke="white" stroke-width="5" stroke-linecap="round" stroke-linejoin="round"/>
<path d="M12.4 79.11H2.5V42.9199L23.23 22.2H52.01V79.11H42.44" stroke="white" stroke-width="5" stroke-linecap="round" stroke-linejoin="round"/>
<path d="M39.7 34.5V48.03H14.79L28.32 34.5H39.7Z" stroke="white" stroke-width="5" stroke-linecap="round" stroke-linejoin="round"/>
<path d="M27.2501 98.9401C35.6393 98.9401 42.4401 92.1393 42.4401 83.7501C42.4401 75.3609 35.6393 68.5601 27.2501 68.5601C18.8609 68.5601 12.0601 75.3609 12.0601 83.7501C12.0601 92.1393 18.8609 98.9401 27.2501 98.9401Z" stroke="white" stroke-width="5" stroke-linecap="round" stroke-linejoin="round"/>
<path d="M27.2499 83.1899C27.5599 83.1899 27.8099 83.4399 27.8099 83.7499C27.8099 84.0599 27.5599 84.3099 27.2499 84.3099C26.9399 84.3099 26.6899 84.0599 26.6899 83.7499C26.6899 83.4399 26.9399 83.1899 27.2499 83.1899ZM27.2499 78.1899C24.1799 78.1899 21.6899 80.6799 21.6899 83.7499C21.6899 86.8199 24.1799 89.3099 27.2499 89.3099C30.3199 89.3099 32.8099 86.8199 32.8099 83.7499C32.8099 80.6799 30.3199 78.1899 27.2499 78.1899Z" fill="white"/>
<path d="M123.22 98.9401C131.609 98.9401 138.41 92.1393 138.41 83.7501C138.41 75.3609 131.609 68.5601 123.22 68.5601C114.831 68.5601 108.03 75.3609 108.03 83.7501C108.03 92.1393 114.831 98.9401 123.22 98.9401Z" stroke="white" stroke-width="5" stroke-linecap="round" stroke-linejoin="round"/>
<path d="M123.22 83.1899C123.53 83.1899 123.78 83.4399 123.78 83.7499C123.78 84.0599 123.53 84.3099 123.22 84.3099C122.91 84.3099 122.66 84.0599 122.66 83.7499C122.66 83.4399 122.91 83.1899 123.22 83.1899ZM123.22 78.1899C120.15 78.1899 117.66 80.6799 117.66 83.7499C117.66 86.8199 120.15 89.3099 123.22 89.3099C126.29 89.3099 128.78 86.8199 128.78 83.7499C128.78 80.6799 126.29 78.1899 123.22 78.1899Z" fill="white"/>
<path d="M115.43 48.0599C105.12 58.3699 85.52 55.4699 85.52 55.4699C85.52 55.4699 82.63 35.8699 92.93 25.5599C103.24 15.2499 122.84 18.1499 122.84 18.1499C122.84 18.1499 125.73 37.7499 115.43 48.0599Z" stroke="#20BB00" stroke-width="5" stroke-linecap="round" stroke-linejoin="round"/>
<path d="M100.91 20.48L105.62 35.37" stroke="#20BB00" stroke-width="5" stroke-linecap="round" stroke-linejoin="round"/>
<path d="M112.33 48.2701L97.4399 43.55" stroke="#20BB00" stroke-width="5" stroke-linecap="round" stroke-linejoin="round"/>
<path d="M70.85 63.83C75.28 63.35 79.58 61.42 82.98 58.02L120.09 20.91" stroke="#20BB00" stroke-width="5" stroke-linecap="round" stroke-linejoin="round"/>
</g>
<defs>
<clipPath id="clip0_9_86">
<rect width="151.61" height="101.44" fill="white"/>
</clipPath>
</defs>
</svg>
