<svg width="119" height="116" viewBox="0 0 119 116" fill="none" xmlns="http://www.w3.org/2000/svg">
<g clip-path="url(#clip0_9_130)">
<path d="M73.6999 81.41V74L65.9199 81.41L53.4399 93.29L65.9199 105.17L73.6999 112.58V105.17H87.9299C93.3299 105.17 98.3099 102.29 101.01 97.62L110.37 81.41H73.6999Z" stroke="#231815" stroke-width="5" stroke-linecap="round" stroke-linejoin="round"/>
<path d="M115.73 71.3801C115.41 72.4401 114.94 73.5101 114.37 74.4901L110.37 81.4001H99.62L93.83 71.3701L86.66 58.9401L107.24 47.0601L114.37 59.3701C116.5 63.0501 116.95 67.4101 115.73 71.3701V71.3801Z" stroke="#231815" stroke-width="5" stroke-linecap="round" stroke-linejoin="round"/>
<path d="M72.3999 34.26L65.9799 37.97L76.2899 41L92.8199 45.86L96.8699 29.11L99.3999 18.67L92.9799 22.38L85.8699 10.06C83.1699 5.39001 78.1899 2.51001 72.7899 2.51001H54.0699L72.3999 34.27V34.26Z" stroke="#231815" stroke-width="5" stroke-linecap="round" stroke-linejoin="round"/>
<path d="M54.07 2.49999H46.09C40.69 2.49999 35.71 5.37999 33.01 10.05L25.9 22.37L46.48 34.25L59.44 11.8L54.07 2.48999V2.49999Z" stroke="#231815" stroke-width="5" stroke-linecap="round" stroke-linejoin="round"/>
<path d="M32.22 58.96L38.64 62.67L36.11 52.23L32.06 35.48L15.53 40.34L5.22 43.37L11.64 47.08L4.53 59.4C1.83 64.07 1.83 69.83 4.53 74.5L13.89 90.71L32.23 58.95L32.22 58.96Z" stroke="#231815" stroke-width="5" stroke-linecap="round" stroke-linejoin="round"/>
<path d="M13.89 90.71L17.88 97.62C20.58 102.29 25.56 105.17 30.96 105.17H45.19V81.4H19.27L13.9 90.71H13.89Z" stroke="#231815" stroke-width="5" stroke-linecap="round" stroke-linejoin="round"/>
<path d="M72.3999 34.26L65.9799 37.97L76.2899 41L92.8199 45.86L96.8699 29.11L99.3999 18.67L92.9799 22.38L85.8699 10.06C83.1699 5.39001 78.1899 2.51001 72.7899 2.51001H54.0699L72.3999 34.27V34.26Z" stroke="#20BB00" stroke-width="5" stroke-linecap="round" stroke-linejoin="round"/>
<path d="M54.07 2.49999H46.09C40.69 2.49999 35.71 5.37999 33.01 10.05L25.9 22.37L46.48 34.25L59.44 11.8L54.07 2.48999V2.49999Z" stroke="#20BB00" stroke-width="5" stroke-linecap="round" stroke-linejoin="round"/>
<path d="M73.6999 81.41V74L65.9199 81.41L53.4399 93.29L65.9199 105.17L73.6999 112.58V105.17H87.9299C93.3299 105.17 98.3099 102.29 101.01 97.62L110.37 81.41H73.6999Z" stroke="white" stroke-width="5" stroke-linecap="round" stroke-linejoin="round"/>
<path d="M115.73 71.3801C115.41 72.4401 114.94 73.5101 114.37 74.4901L110.37 81.4001H99.62L93.83 71.3701L86.66 58.9401L107.24 47.0601L114.37 59.3701C116.5 63.0501 116.95 67.4101 115.73 71.3701V71.3801Z" stroke="white" stroke-width="5" stroke-linecap="round" stroke-linejoin="round"/>
<path d="M32.22 58.96L38.64 62.67L36.11 52.23L32.06 35.48L15.53 40.34L5.22 43.37L11.64 47.08L4.53 59.4C1.83 64.07 1.83 69.83 4.53 74.5L13.89 90.71L32.23 58.95L32.22 58.96Z" stroke="white" stroke-width="5" stroke-linecap="round" stroke-linejoin="round"/>
<path d="M13.89 90.71L17.88 97.62C20.58 102.29 25.56 105.17 30.96 105.17H45.19V81.4H19.27L13.9 90.71H13.89Z" stroke="white" stroke-width="5" stroke-linecap="round" stroke-linejoin="round"/>
</g>
<defs>
<clipPath id="clip0_9_130">
<rect width="118.9" height="115.08" fill="white"/>
</clipPath>
</defs>
</svg>
