<svg width="98" height="101" viewBox="0 0 98 101" fill="none" xmlns="http://www.w3.org/2000/svg">
<path d="M36.2493 10.8693C47.2593 21.8793 43.4993 43.4993 43.4993 43.4993C43.4993 43.4993 21.8793 47.2593 10.8693 36.2493C-0.140741 25.2393 3.61926 3.61926 3.61926 3.61926C3.61926 3.61926 25.2393 -0.140741 36.2493 10.8693Z" stroke="#20BB00" stroke-width="5" stroke-linecap="round" stroke-linejoin="round"/>
<path d="M3.61926 3.61914L47.5001 47.5" stroke="#20BB00" stroke-width="5" stroke-linecap="round" stroke-linejoin="round"/>
<path d="M61.5293 10.8693C50.5193 21.8793 54.2793 43.4993 54.2793 43.4993C54.2793 43.4993 75.8993 47.2593 86.9093 36.2493C97.9193 25.2393 94.1593 3.61926 94.1593 3.61926C94.1593 3.61926 72.5393 -0.140741 61.5293 10.8693Z" stroke="#0F3DA7" stroke-width="5" stroke-linecap="round" stroke-linejoin="round"/>
<path d="M94.1592 3.61914L47.2092 50.5691V82.9091" stroke="#0F3DA7" stroke-width="5" stroke-linecap="round" stroke-linejoin="round"/>
<path d="M47.0893 82.9092C28.7593 82.9092 13.3293 89.2792 8.49927 97.9792H85.6793C80.8493 89.2792 65.4193 82.9092 47.0893 82.9092Z" stroke="#0F3DA7" stroke-width="5" stroke-linecap="round" stroke-linejoin="round"/>
</svg>
