<svg width="131" height="135" viewBox="0 0 131 135" fill="none" xmlns="http://www.w3.org/2000/svg">
<path d="M77.0699 127.16L113.6 131.74" stroke="#0F3DA7" stroke-width="5" stroke-linecap="round" stroke-linejoin="round"/>
<path d="M113.6 131.74C121.47 131.74 127.85 125.36 127.85 117.49C127.85 109.62 121.47 103.24 113.6 103.24C105.73 103.24 99.35 109.62 99.35 117.49C99.35 125.36 105.73 131.74 113.6 131.74Z" stroke="#0F3DA7" stroke-width="5" stroke-linecap="round" stroke-linejoin="round"/>
<path d="M54.8699 127.06L18.3199 131.74" stroke="#0F3DA7" stroke-width="5" stroke-linecap="round" stroke-linejoin="round"/>
<path d="M107.96 73.62C107.96 58.18 95.95 30.6 95.95 30.6C95.95 30.6 92.39 34.95 90.93 41.25C85 24.78 65.42 3 65.42 3C65.42 3 45.84 24.78 39.91 41.25C38.45 34.95 34.89 30.6 34.89 30.6C34.89 30.6 22.88 58.17 22.88 73.62V80.33C22.88 102.14 42.27 111.85 65.42 111.85C88.57 111.85 107.96 102.14 107.96 80.33V73.62Z" stroke="#20BB00" stroke-width="5" stroke-linecap="round" stroke-linejoin="round"/>
<path d="M81.55 78.7999C81.55 86.6599 74.33 93.0299 65.42 93.0299C56.51 93.0299 49.29 86.6599 49.29 78.7999C49.29 70.9399 56.51 45.1699 65.42 45.1699C74.33 45.1699 81.55 70.9399 81.55 78.7999Z" stroke="#20BB00" stroke-width="5" stroke-linecap="round" stroke-linejoin="round"/>
<path d="M78.51 111.84C79.26 113.57 79.67 115.48 79.67 117.49C79.67 125.36 73.29 131.74 65.42 131.74C57.55 131.74 51.17 125.36 51.17 117.49C51.17 115.07 51.77 112.79 52.84 110.79" stroke="#0F3DA7" stroke-width="5" stroke-linecap="round" stroke-linejoin="round"/>
<path d="M17.25 131.74C25.1201 131.74 31.5 125.36 31.5 117.49C31.5 109.62 25.1201 103.24 17.25 103.24C9.37994 103.24 3 109.62 3 117.49C3 125.36 9.37994 131.74 17.25 131.74Z" stroke="#0F3DA7" stroke-width="5" stroke-linecap="round" stroke-linejoin="round"/>
<path d="M113.6 103.24L92.25 106.11" stroke="#0F3DA7" stroke-width="5" stroke-linecap="round" stroke-linejoin="round"/>
<path d="M16.1801 103.28L38.5901 106.11" stroke="#0F3DA7" stroke-width="5" stroke-linecap="round" stroke-linejoin="round"/>
</svg>
