<svg width="27" height="27" viewBox="0 0 27 27" fill="none" xmlns="http://www.w3.org/2000/svg">
<g style="mix-blend-mode:multiply">
<path d="M4.55148 17.135C4.55148 17.135 6.01769 9.27786 13.6998 8.10089C21.3817 6.92483 24.4514 5.80913 26.1207 3.24113C26.1207 3.24113 24.8849 14.0722 19.7441 18.8676C15.5908 22.742 11.5409 22.7702 6.72149 20.3267C1.56028 17.7106 0.0008177 23.308 0.0008177 23.308C0.0008177 23.308 0.392663 19.2831 5.42759 17.4479C9.3689 16.0122 12.8515 16.0698 15.6591 14.7376C17.5237 13.8522 19.3901 12.1677 20.0053 10.3357C20.0053 10.3357 18.4005 14.5851 11.3785 15.4479C7.31054 15.9476 4.55234 17.1352 4.55234 17.1352L4.55148 17.135Z" fill="#396B29"/>
</g>
</svg>
