<svg width="20" height="21" viewBox="0 0 20 21" fill="none" xmlns="http://www.w3.org/2000/svg">
<g style="mix-blend-mode:multiply">
<path d="M4.5412 14.8228C4.5412 14.8228 3.91397 8.72862 9.15717 6.22462C14.4005 3.72131 16.358 2.24583 17.0041 0.000286747C17.0041 0.000286747 18.4304 8.2337 15.7765 12.8584C13.6325 16.5949 10.742 17.4791 6.77394 16.7087C2.52465 15.8841 2.60318 20.3354 2.60318 20.3354C2.60318 20.3354 2.02496 17.2902 5.23452 14.8662C7.74714 12.9695 10.2502 12.2693 11.974 10.6904C13.1188 9.64133 14.0943 8.00385 14.1436 6.5246C14.1436 6.5246 13.9021 9.99366 9.06404 12.1257C6.26122 13.3608 4.54184 14.8227 4.54184 14.8227L4.5412 14.8228Z" fill="#83B02F"/>
</g>
</svg>
