<svg width="29" height="29" viewBox="0 0 29 29" fill="none" xmlns="http://www.w3.org/2000/svg">
<g style="mix-blend-mode:multiply">
<path d="M5.68671 20.7546C5.68671 20.7546 5.3219 11.7235 13.4935 8.48914C21.6652 5.2558 24.7678 3.25192 25.9604 0.000195297C25.9604 0.000195297 27.3291 12.2515 22.8712 18.8338C19.2697 24.152 14.8124 25.2042 8.88356 23.7258C2.53446 22.1432 2.22668 28.7067 2.22668 28.7067C2.22668 28.7067 1.64382 24.1711 6.73136 20.8786C10.7141 18.3022 14.5677 17.4875 17.3268 15.3112C19.159 13.865 20.7916 11.5374 21.0079 9.36278C21.0079 9.36278 20.3103 14.4518 12.7871 17.1734C8.42878 18.75 5.68768 20.7545 5.68768 20.7545L5.68671 20.7546Z" fill="#ADC732"/>
</g>
</svg>
