<svg width="29" height="24" viewBox="0 0 29 24" fill="none" xmlns="http://www.w3.org/2000/svg">
<g style="mix-blend-mode:multiply">
<path d="M12.9785 17.9726C19.2409 19.8578 21.5978 21.1948 22.4346 23.6928C22.4346 23.6928 23.8368 13.7772 20.553 8.89448C17.9 4.95102 14.4648 4.48987 9.81393 6.18166C4.835 7.99245 4.77801 2.76884 4.77801 2.76884C4.77801 2.76884 4.20023 6.44637 8.06382 8.64376C11.0887 10.3623 14.061 10.6836 16.1458 12.1883C17.5303 13.1872 18.7348 14.9091 18.8436 16.6303C18.8436 16.6303 18.4412 12.6211 12.6685 11.0895C9.32409 10.2022 7.24812 8.83445 7.24812 8.83445C7.24812 8.83445 6.71523 16.0891 12.9793 17.9751L12.9785 17.9726Z" fill="#CFCC1A"/>
</g>
</svg>
