<svg width="33" height="32" viewBox="0 0 33 32" fill="none" xmlns="http://www.w3.org/2000/svg">
<g style="mix-blend-mode:multiply">
<path d="M23.4396 23.9824C23.4396 23.9824 14.0525 25.1612 9.95678 16.9242C5.86208 8.68697 3.49779 5.62812 0.000850339 4.67166C0.000850339 4.67166 12.6579 2.16118 19.9173 6.22892C25.7824 9.5151 27.2739 14.0711 26.256 20.3855C25.1666 27.1474 32.0395 26.8882 32.0395 26.8882C32.0395 26.8882 27.3604 27.8971 23.4766 22.8819C20.4374 18.9556 19.2471 15.0084 16.7333 12.3231C15.0629 10.5399 12.491 9.04286 10.2037 9.00946C10.2037 9.00946 15.5732 9.28727 19.0768 16.8933C21.1064 21.2996 23.4395 23.9814 23.4395 23.9814L23.4396 23.9824Z" fill="#ADC732"/>
</g>
</svg>
