<svg width="36" height="38" viewBox="0 0 36 38" fill="none" xmlns="http://www.w3.org/2000/svg">
<g style="mix-blend-mode:multiply">
<path d="M12.7414 28.3099C12.7414 28.3099 8.74234 19.0587 14.9048 12.9741C21.0678 6.89044 23.0926 3.77499 22.8639 0.00206607C22.8639 0.00206607 29.0882 12.2602 27.6817 20.5799C26.5456 27.3016 22.8952 29.8816 16.8716 30.3263C10.4214 30.8034 12.8037 37.718 12.8037 37.718C12.8037 37.718 10.4297 33.2053 13.7473 28.0898C16.345 24.0864 19.5395 21.9545 21.1801 18.7747C22.2693 16.6621 22.8181 13.7015 22.1334 11.3723C22.1334 11.3723 23.5606 16.8868 17.7832 22.2229C14.4362 25.314 12.7422 28.3094 12.7422 28.3094L12.7414 28.3099Z" fill="#83B02F"/>
</g>
</svg>
