<svg width="38" height="39" viewBox="0 0 38 39" fill="none" xmlns="http://www.w3.org/2000/svg">
<g style="mix-blend-mode:multiply">
<path d="M23.9725 9.91568C23.9725 9.91568 28.175 18.3918 21.7448 24.9704C15.3142 31.5479 13.2038 34.7872 13.4516 38.4041C13.4516 38.4041 6.91533 27.2785 8.36728 19.0847C9.54008 12.4648 13.3514 9.55699 19.649 8.44003C26.3928 7.24323 23.8861 0.838554 23.8861 0.838554C23.8861 0.838554 26.3787 4.92494 22.9211 10.243C20.2138 14.405 16.8782 16.8281 15.1698 20.0857C14.0357 22.2498 13.4685 25.1712 14.1898 27.342C14.1898 27.342 12.6849 22.1802 18.7141 16.3685C22.207 13.0018 23.9716 9.91617 23.9716 9.91617L23.9725 9.91568Z" fill="#396B29"/>
</g>
</svg>
