<svg width="17" height="17" viewBox="0 0 17 17" fill="none" xmlns="http://www.w3.org/2000/svg">
<g style="mix-blend-mode:multiply">
<path d="M12.4528 12.3199C12.4528 12.3199 7.70402 13.1712 5.39804 9.08604C3.0926 5.00076 1.80681 3.50627 0.000438617 3.11269C0.000438617 3.11269 6.37884 1.49583 10.1844 3.37322C13.2591 4.88988 14.1404 7.1701 13.7909 10.4129C13.4169 13.8855 16.91 13.5698 16.91 13.5698C16.91 13.5698 14.5541 14.2086 12.4422 11.7585C10.7896 9.84033 10.0779 7.86205 8.72591 6.56177C7.82763 5.69835 6.47786 5.00476 5.31219 5.0489C5.31219 5.0489 8.05399 5.04681 10.0416 8.82647C11.1929 11.0161 12.4527 12.3194 12.4527 12.3194L12.4528 12.3199Z" fill="#396B29"/>
</g>
</svg>
