<svg width="25" height="25" viewBox="0 0 25 25" fill="none" xmlns="http://www.w3.org/2000/svg">
<g style="mix-blend-mode:multiply">
<path d="M16.9844 20.4125C16.9844 20.4125 9.03617 19.5692 7.25832 12.0036C5.48137 4.43797 4.12756 1.46558 1.43617 0.00358978C1.43617 0.00358978 12.3309 0.383166 17.516 5.1307C21.7052 8.96616 22.052 13.0013 19.9953 17.9981C17.7935 23.3492 23.4962 24.4633 23.4962 24.4633C23.4962 24.4633 19.453 24.3894 17.2273 19.5145C15.4859 15.6984 15.2692 12.2221 13.7203 9.52802C12.6909 7.73883 10.8647 6.01087 8.98994 5.54168C8.98994 5.54168 13.3525 6.80713 14.7652 13.7394C15.5835 17.7555 16.9844 20.4117 16.9844 20.4117L16.9844 20.4125Z" fill="#396B29"/>
</g>
</svg>
