<svg width="32" height="32" viewBox="0 0 32 32" fill="none" xmlns="http://www.w3.org/2000/svg">
<g style="mix-blend-mode:multiply">
<path d="M8.55307 7.27466C8.55307 7.27466 17.9576 6.24406 21.9229 14.5447C25.8872 22.8454 28.2029 25.9412 31.6843 26.9527C31.6843 26.9527 18.9893 29.2632 11.795 25.0815C5.98235 21.7032 4.56296 17.1243 5.68034 10.8267C6.8762 4.08279 0.000102559 4.23353 0.000102559 4.23353C0.000102559 4.23353 4.69452 3.29861 8.49875 8.37446C11.4756 12.3481 12.6035 16.3137 15.0747 19.0383C16.7167 20.8476 19.2647 22.385 21.5511 22.4545C21.5511 22.4545 16.1867 22.092 12.8035 14.4317C10.8436 9.99388 8.55322 7.27567 8.55322 7.27567L8.55307 7.27466Z" fill="#ADC732"/>
</g>
</svg>
