<svg width="122" height="31" viewBox="0 0 122 31" fill="none" xmlns="http://www.w3.org/2000/svg">
<path d="M6.58954 21.6313C4.37117 19.7359 4.20776 17.1354 4.59529 14.6808C5.06933 11.6689 7.4508 10.1632 10.1199 9.9693C13.7248 9.70619 16.3725 8.07992 18.556 5.33478C18.6826 5.17536 18.8466 5.0749 18.9848 4.99187C19.0195 4.97102 19.0558 4.94951 19.0946 4.9266C19.2272 4.84815 19.3874 4.75336 19.6029 4.61294L20.2576 4.18629L20.3706 4.95955C20.9177 8.70368 20.9975 12.1172 20.3751 15.5453L20.3006 15.956H20.2937C19.7542 18.6109 18.6713 21.0586 16.2487 22.7671C14.4737 24.0195 12.438 24.458 10.3846 24.1374C10.384 24.1373 10.3835 24.1372 10.3829 24.1371L10.3675 24.1348C10.3252 24.1285 10.2761 24.1212 10.2271 24.1128L10.2144 24.1106L10.2018 24.1078C8.22145 23.6633 7.35725 23.5138 6.93959 23.479C6.70923 23.4598 6.68872 23.4674 6.62722 23.4901C6.58684 23.505 6.52879 23.5265 6.38204 23.5512C6.37907 23.5523 6.37404 23.5542 6.36664 23.5574C6.35524 23.5623 6.34212 23.5684 6.32328 23.5773L6.31444 23.5815C6.29929 23.5887 6.27963 23.598 6.26048 23.6067C6.13384 23.6657 6.00718 23.7312 5.87246 23.8017C5.53136 23.9801 5.19238 24.1677 4.8512 24.3597C4.69674 24.4467 4.54199 24.535 4.38801 24.6236L4.38745 24.6239C4.36299 24.6379 4.33614 24.6539 4.30709 24.6711C4.13803 24.7715 3.89473 24.9159 3.61733 24.9835C3.61395 24.9843 3.60976 24.9854 3.60483 24.9866C3.55644 24.999 3.43689 25.0295 3.3167 25.0395C3.2485 25.0452 3.15071 25.0475 3.04552 25.0237C2.93841 24.9995 2.78671 24.9392 2.67239 24.7906L2.67018 24.7877C2.47898 24.5355 2.56909 24.2634 2.58966 24.2036L2.59329 24.193L2.59341 24.1931C2.66122 24.0091 2.7823 23.892 2.87957 23.8196C2.94784 23.7688 3.03565 23.72 3.07345 23.699C3.0803 23.6952 3.08551 23.6923 3.08866 23.6905L3.28795 24.0341C3.28971 24.0337 3.2915 24.0334 3.29333 24.033C3.31495 24.0283 3.3327 24.0238 3.35427 24.0184C3.36167 24.0166 3.36951 24.0146 3.37812 24.0125L3.38031 24.0119C3.49477 23.9842 3.58756 23.9322 3.73989 23.8435L3.50558 23.4455C3.50594 23.4453 3.5063 23.4451 3.50666 23.4448M6.58954 21.6313C6.65856 21.6903 6.72956 21.7486 6.80259 21.8062L7.00587 21.9664C6.93049 22.0108 6.85509 22.0552 6.7797 22.0996C6.55691 22.2308 6.33412 22.362 6.11163 22.4929C5.85467 22.6444 5.5974 22.7956 5.34014 22.9467C5.31186 22.9634 5.28358 22.98 5.2553 22.9966C5.02019 23.1216 4.78735 23.2496 4.55661 23.3784L4.31574 22.9693M6.58954 21.6313L6.5247 21.6695L5.85808 22.062L5.85771 22.0622C5.60123 22.2134 5.34439 22.3643 5.0872 22.5154C4.8302 22.6665 4.57284 22.8177 4.31574 22.9693M6.58954 21.6313L4.31574 22.9693M3.50666 23.4448C3.5069 23.4447 3.50715 23.4446 3.50739 23.4444L3.74003 23.8434C3.74889 23.8383 3.75794 23.833 3.76722 23.8276C3.80431 23.8059 3.84488 23.7823 3.88993 23.7564C4.04566 23.6669 4.20305 23.577 4.36073 23.4883L4.3608 23.4882C4.4259 23.4516 4.49117 23.415 4.5566 23.3784L4.31548 22.9694C4.31556 22.9694 4.31565 22.9693 4.31574 22.9693M3.50666 23.4448C3.43566 23.4862 3.36515 23.5278 3.29591 23.5687L3.29531 23.569C3.22527 23.6104 3.15653 23.6509 3.08767 23.6911L3.28771 24.0342L4.31574 22.9693M3.50666 23.4448C3.64046 23.3661 3.77452 23.2873 3.90834 23.2087L3.91109 23.2071C4.04625 23.1277 4.18117 23.0485 4.31574 22.9693M33.27 28.7995C34.5464 29.8865 36.1712 30.3855 37.7744 30.335L37.7793 30.335L37.8101 30.3343C37.8352 30.3335 37.8698 30.3321 37.9132 30.3294C38.0387 30.323 38.164 30.3132 38.2891 30.3C35.5246 30.6717 33.0178 30.5165 30.9188 29.603C28.5627 28.5776 26.652 26.5665 25.4688 23.0913L25.1498 22.1543L24.5849 22.967C24.2128 23.5024 23.8758 24.0123 23.5539 24.4994C22.884 25.5129 22.2795 26.4275 21.5594 27.2679L21.5594 27.2679C19.8316 29.2844 17.6424 30.4098 14.9362 30.4133H14.936C14.6056 30.4138 14.2753 30.4143 13.9449 30.4148C9.78563 30.4212 5.62087 30.4276 1.45685 30.5001C0.918568 30.5093 0.737996 30.4089 0.66534 30.3325C0.584671 30.2477 0.498259 30.0509 0.500027 29.5254L0.500028 29.5254C0.527919 21.0041 0.52317 12.4828 0.518421 3.9627C0.517976 3.16387 0.51753 2.36505 0.517112 1.56624L0.517111 1.56574C0.516467 1.14093 0.541165 0.898219 0.618812 0.75497C0.646823 0.703294 0.680753 0.668242 0.737979 0.639927C0.803624 0.607446 0.924665 0.572409 1.14035 0.57315L1.14066 0.573151C2.64988 0.577399 4.15225 0.556986 5.64971 0.53664C8.92288 0.492167 12.1725 0.448014 15.4187 0.662423L15.4188 0.662426C20.0909 0.970611 22.6338 4.25827 24.4276 8.42623L24.4277 8.42639C24.766 9.21173 24.9961 10.0227 25.2721 10.9957C25.4152 11.5002 25.5707 12.0483 25.76 12.6589L26.0731 13.6688L26.6551 12.786C26.9888 12.2796 27.2961 11.8076 27.5878 11.3596C28.1748 10.4579 28.6987 9.65316 29.2486 8.86026C33.5107 2.7138 40.7374 0.0461897 47.3135 2.12264C47.9296 2.3173 48.5366 2.57311 49.0968 2.88404C50.3365 3.57222 51.0672 4.43999 51.3474 5.38938C51.6273 6.33747 51.4831 7.45209 50.8036 8.68581L50.8036 8.68594C48.9697 12.0182 45.8629 13.6905 42.261 14.5143C39.3987 15.1691 36.4412 15.4815 33.4725 15.7718L33.4715 15.7708L33.2369 15.7935C32.5246 15.8624 31.9274 16.054 31.5151 16.4855C31.0989 16.9213 30.9583 17.5098 30.9476 18.168C30.9383 18.7139 30.9151 19.2728 30.8916 19.8389C30.837 21.1552 30.7807 22.5102 30.8945 23.8301C31.0853 26.0443 31.9863 27.7064 33.27 28.7995ZM39.4048 30.1244C39.2186 30.1578 39.0335 30.189 38.8495 30.2181C39.25 30.143 39.6448 30.0329 40.0282 29.8887C41.6313 29.3767 43.9245 28.2822 46.4406 25.9514C44.6853 28.087 42.4032 29.5867 39.4048 30.1244L39.493 30.6166L39.4048 30.1244ZM0.0184208 3.96284C0.0231698 12.4831 0.0279189 21.0034 3.03089e-05 29.5237L24.8869 8.22856C23.0701 4.00738 20.4127 0.490753 15.4517 0.16351C12.1853 -0.0522291 8.90227 -0.00769195 5.61873 0.0368515C4.1261 0.0571002 2.63337 0.0773501 1.14207 0.0731525C0.075678 0.0694893 0.0158919 0.761826 0.0171121 1.5665C0.0175304 2.36528 0.0179756 3.16406 0.0184208 3.96284ZM46.9636 6.49104L46.9645 6.47916L46.9647 6.46725C46.9973 4.90573 46.744 3.70391 46.089 2.87687C45.4173 2.02878 44.408 1.6771 43.1803 1.62617C40.7691 1.5259 38.6899 2.42564 36.9399 3.97354C34.126 6.46149 32.8023 9.71062 32.0561 13.1793H32.0522L31.9713 13.5805C31.8506 14.1793 31.8844 14.7797 32.276 15.1879C32.6714 15.6001 33.2626 15.6423 33.8287 15.5359C34.3621 15.4358 34.9075 15.3442 35.459 15.2516C37.2012 14.9591 39.0033 14.6565 40.6731 14.0437L40.6731 14.0437C44.3795 12.6832 46.7277 9.93001 46.9636 6.49104ZM8.23772 21.2816C9.91979 20.3189 11.1682 19.2177 12.081 18.1916C11.5977 18.6616 11.1061 19.0966 10.6323 19.4902C9.72368 20.2449 8.86807 20.857 8.23772 21.2816ZM3.22924 24.0432C3.22784 24.0433 3.22716 24.0433 3.22717 24.0433C3.22717 24.0433 3.22788 24.0432 3.22924 24.0432ZM6.37234 23.5528C6.37281 23.5527 6.37327 23.5527 6.37373 23.5526C6.37319 23.5527 6.37263 23.5528 6.37206 23.5529L6.37234 23.5528Z" fill="#029847" stroke="#029847"/>
<path d="M60.3512 19.5428V8.7084H66.231V10.5754H62.534V17.6746H62.6048C63.3795 17.6746 64.1592 17.616 64.9462 17.4988C65.7319 17.3815 66.4957 17.2289 67.2351 17.0409V18.8553C66.5543 19.0556 65.7441 19.2192 64.8059 19.3487C63.8664 19.4781 62.9281 19.5428 61.9898 19.5428H60.3524H60.3512ZM73.4309 23.6663H71.2835V15.0335H69.9109V23.2609H67.7805V7.51055H69.9109V13.1652H71.2835V7.3335H73.4309V23.6651V23.6663Z" fill="black"/>
<path d="M85.5602 15.0154C85.7127 14.0642 85.836 13.1338 85.9299 12.2229C86.0239 11.3132 86.0702 10.5403 86.0702 9.90654H77.5318V8.03955H88.2884C88.2884 9.2374 88.2323 10.4536 88.1212 11.6868C88.009 12.9201 87.8772 14.03 87.7247 15.0166H90.4187V16.8665H84.1168V23.5787H81.8986V16.8665H75.3148V15.0166H85.5602V15.0154Z" fill="black"/>
<path d="M99.9418 7.5103H101.949V23.2607H99.9418V14.7695H98.7265C98.668 16.5192 98.3483 17.8343 97.7675 18.7159C97.1867 19.5963 96.3265 20.0371 95.1882 20.0371C93.9912 20.0371 93.1042 19.5352 92.5295 18.5303C91.9548 17.5266 91.6669 16.0723 91.6669 14.1699C91.6669 12.2675 91.9512 10.773 92.521 9.79245C93.0895 8.81195 93.979 8.32108 95.1882 8.32108C96.2802 8.32108 97.1074 8.70327 97.6699 9.46643C98.2336 10.2296 98.574 11.3578 98.6911 12.8487H99.9405V7.5103H99.9418ZM96.6499 14.1699C96.6499 12.9135 96.5413 11.9415 96.3241 11.2541C96.1069 10.5666 95.7287 10.2235 95.1882 10.2235C94.6476 10.2235 94.3023 10.5666 94.1144 11.2541C93.9265 11.9415 93.8326 12.9135 93.8326 14.1699C93.8326 15.4264 93.9265 16.4167 94.1144 17.1029C94.3023 17.7903 94.6598 18.1335 95.1882 18.1335C95.7165 18.1335 96.1069 17.7903 96.3241 17.1029C96.5413 16.4154 96.6499 15.4386 96.6499 14.1699ZM105.118 23.6661H103.058V7.33447H105.118V23.6661Z" fill="black"/>
<path d="M113.955 15.8089V19.4904H121.823V21.3049H106.719V19.4904H111.737V15.8089H113.955ZM118.621 18.1521H116.455C116.62 17.5062 116.76 16.8541 116.877 16.1972C116.994 15.5391 117.094 14.8821 117.176 14.224C116.437 14.3302 115.691 14.4035 114.941 14.4438C114.189 14.4853 113.391 14.5061 112.547 14.5061H108.639V12.6916H112.864C113.674 12.6916 114.433 12.6769 115.143 12.6476C115.853 12.6183 116.584 12.5621 117.335 12.4803C117.358 12.1397 117.376 11.8087 117.387 11.4852C117.398 11.1628 117.41 10.8478 117.422 10.5425H108.867V8.71094H119.588C119.576 9.4741 119.547 10.2678 119.5 11.0895C119.454 11.9113 119.388 12.7343 119.306 13.5561C119.225 14.3778 119.124 15.1801 119.007 15.9603C118.89 16.7418 118.761 17.4732 118.621 18.1533V18.1521Z" fill="black"/>
</svg>
