<svg width="129" height="36" viewBox="0 0 129 36" fill="none" xmlns="http://www.w3.org/2000/svg">
<path d="M28.9045 19.5983H35.2608C33.1458 17.3094 32.5615 14.5902 32.5282 14.4196C31.2637 8.59164 26.686 4.00276 20.8732 2.74146V6.68486C25.0183 7.91277 28.1835 11.4296 28.9082 15.7773H19.5384V0C17.0388 2.27404 14.3691 2.74146 14.3691 2.74146C8.56007 4.01389 3.98977 8.60648 2.73257 14.4344H6.66317C7.88709 10.2758 11.3925 7.10035 15.7224 6.37325V15.7736H0C2.26666 18.2814 2.73257 20.9598 2.73257 20.9598C3.99716 26.7877 8.57486 31.3691 14.3876 32.6342V28.6908C10.2425 27.4628 7.07731 23.9498 6.35257 19.602H15.7224V35.3756C18.0039 33.2537 20.7142 32.6675 20.8843 32.6342C26.6934 31.3654 31.2673 26.7728 32.5246 20.9412H28.5939C27.37 25.0998 23.8647 28.2753 19.5347 29.0024V19.602H28.9009L28.9045 19.5983Z" fill="#D81F36"/>
<path d="M45.1483 16.0592L53.6456 5.44952H57.9607L49.0087 16.6454L58.5449 29.889H52.9652L45.1483 18.7933V29.9224H40.5744V8.80308C40.5744 8.06486 40.4671 7.41566 40.249 6.85179C40.0345 6.28791 39.6241 5.8242 39.0176 5.45323H45.1373L45.1483 7.11518V16.063V16.0592Z" fill="#3F2825"/>
<path d="M79.115 23.1224C79.115 24.2279 78.9301 25.1665 78.5603 25.9381C78.1943 26.7097 77.7062 27.3478 77.0998 27.8597C76.4933 28.3679 75.813 28.7575 75.0549 29.032C74.2969 29.3028 73.5426 29.5031 72.7846 29.633C72.0266 29.7628 71.2907 29.8407 70.5808 29.8592C69.8671 29.8815 69.2607 29.8926 68.7652 29.8926H61.8876V8.80304C61.8876 8.06481 61.7804 7.41561 61.5659 6.85174C61.3478 6.28787 60.9373 5.82416 60.3346 5.45319H69.2533C70.4403 5.45319 71.5644 5.5348 72.6256 5.69803C73.6868 5.86125 74.6112 6.16545 75.3988 6.6069C76.1864 7.05206 76.8076 7.67529 77.2624 8.47658C77.7173 9.28159 77.9428 10.3314 77.9428 11.6335C77.9428 12.3272 77.8578 12.9468 77.684 13.4884C77.5102 14.03 77.2846 14.5123 76.9999 14.9352C76.7189 15.3581 76.3972 15.7216 76.0274 16.0258C75.6614 16.33 75.2916 16.5897 74.9255 16.8048C75.4876 17.0015 76.02 17.2574 76.5303 17.569C77.0369 17.8844 77.4806 18.2924 77.8615 18.7895C78.2386 19.2866 78.5418 19.8913 78.7711 20.5961C78.9966 21.301 79.1113 22.1431 79.1113 23.1187L79.115 23.1224ZM73.3725 11.7968C73.3725 10.4501 72.9769 9.53385 72.1893 9.04417C71.4017 8.55449 70.248 8.30965 68.7357 8.30965C68.7283 8.30965 66.3655 8.30594 66.3655 8.30594V15.4694H68.3437C69.0574 15.4694 69.7229 15.4137 70.3404 15.3061C70.9579 15.1985 71.4867 15.0094 71.9304 14.7348C72.3742 14.464 72.7254 14.0893 72.9843 13.6108C73.2431 13.1322 73.3725 12.5276 73.3725 11.7893V11.7968ZM74.541 22.4695C74.541 21.7313 74.4005 21.1044 74.1194 20.5813C73.8384 20.0582 73.4539 19.6353 72.9658 19.3126C72.4814 18.9861 71.9193 18.7561 71.2796 18.6152C70.64 18.4742 69.9559 18.4037 69.2201 18.4037H66.3618V27.1252C66.3618 27.1252 69.3828 27.1326 69.3791 27.1252C71.2168 27.1252 72.5368 26.7468 73.3355 25.9863C74.1342 25.2296 74.5373 24.0536 74.5373 22.4695H74.541Z" fill="#3F2825"/>
<path d="M82.6795 8.80304C82.6795 8.06481 82.5723 7.41561 82.3541 6.85174C82.1397 6.28787 81.7255 5.82416 81.1228 5.45319H87.3016L87.2868 7.11513V29.8963H82.6795V8.80304Z" fill="#3F2825"/>
<path d="M97.3814 29.3398C97.2076 29.4028 97.0042 29.4622 96.7713 29.5216C96.5383 29.5809 96.2906 29.6328 96.0243 29.6811C95.7581 29.7293 95.4882 29.7701 95.2109 29.7998C94.9335 29.8332 94.6636 29.848 94.4048 29.848C93.7096 29.848 93.118 29.7367 92.6336 29.5104C92.1492 29.2841 91.7499 28.9688 91.443 28.557C91.136 28.149 90.9068 27.6593 90.7663 27.088C90.6221 26.5167 90.5518 25.8861 90.5518 25.1961C90.5518 24.5691 90.6258 23.9867 90.77 23.4488C90.9142 22.9072 91.1434 22.4398 91.4504 22.0428C91.7573 21.6459 92.1492 21.338 92.6262 21.1154C93.0995 20.8928 93.6652 20.7815 94.3234 20.7815C94.8152 20.7815 95.2294 20.8335 95.5732 20.9299C95.9171 21.0301 96.2018 21.1673 96.4348 21.3417C96.664 21.516 96.8452 21.7238 96.9746 21.9612C97.1041 22.1986 97.2039 22.4546 97.2668 22.7217L96.4237 22.7477C96.383 22.7477 96.3239 22.7217 96.2388 22.6698C96.1575 22.6178 96.0946 22.5399 96.0539 22.436C96.0059 22.3025 95.9393 22.1727 95.8543 22.0539C95.7655 21.9352 95.6546 21.8314 95.5104 21.746C95.3662 21.657 95.1887 21.5902 94.9742 21.5383C94.7597 21.4864 94.5009 21.4604 94.1903 21.4604C93.8021 21.4604 93.4508 21.5494 93.1365 21.7275C92.8185 21.9056 92.5485 22.1615 92.323 22.488C92.0974 22.8181 91.9236 23.2114 91.8016 23.6677C91.6796 24.124 91.6167 24.6285 91.6167 25.1849C91.6167 25.6598 91.6685 26.1309 91.772 26.5983C91.8756 27.0657 92.0457 27.4886 92.2897 27.8596C92.5301 28.2306 92.8481 28.5348 93.2363 28.7648C93.6283 28.9948 94.1164 29.1098 94.7006 29.1098C94.8263 29.1098 94.9705 29.1024 95.1258 29.0912C95.2848 29.0801 95.4438 29.0578 95.6065 29.0245C95.7692 28.9911 95.9245 28.954 96.0761 28.9057C96.2277 28.8575 96.3534 28.7982 96.457 28.7277V26.3015C96.457 26.1346 96.4237 25.9677 96.3497 25.8007C96.2758 25.6338 96.1501 25.4743 95.9689 25.3259H97.3777V25.7414V29.3361L97.3814 29.3398Z" fill="#3F2825"/>
<path d="M102.432 20.8448C102.821 20.8448 103.172 20.893 103.494 20.9894C103.815 21.0859 104.089 21.2306 104.318 21.4235C104.547 21.6164 104.725 21.8575 104.854 22.1431C104.98 22.4288 105.043 22.7627 105.043 23.1448C105.043 23.5269 104.991 23.8793 104.888 24.1612C104.784 24.4432 104.647 24.6769 104.473 24.8624C104.3 25.0478 104.093 25.1962 103.856 25.3075C103.619 25.4188 103.368 25.5004 103.109 25.5561L105.72 29.7814H104.592L102.089 25.6896H100.391V29.7814H99.478V21.8093C99.478 21.6275 99.4447 21.4494 99.3707 21.2751C99.3005 21.1007 99.1748 20.9598 98.9899 20.8485H102.429L102.432 20.8448ZM104.104 23.1522C104.104 22.8109 104.045 22.5327 103.934 22.3138C103.819 22.0949 103.66 21.9243 103.453 21.7944C103.246 21.6683 103.002 21.583 102.713 21.5385C102.425 21.494 102.107 21.4717 101.759 21.4717H100.987C100.846 21.4717 100.735 21.4791 100.654 21.4977C100.576 21.5125 100.517 21.5422 100.476 21.5867C100.436 21.6312 100.413 21.6869 100.406 21.7611C100.399 21.8315 100.395 21.9243 100.395 22.0356V25.0107H101.689C101.996 25.0107 102.296 24.9885 102.584 24.9403C102.872 24.892 103.128 24.803 103.353 24.6732C103.579 24.5433 103.76 24.3578 103.9 24.113C104.037 23.8719 104.107 23.5528 104.107 23.1559L104.104 23.1522Z" fill="#3F2825"/>
<path d="M113.474 25.352C113.474 26.0494 113.403 26.6801 113.259 27.244C113.119 27.8078 112.897 28.2864 112.601 28.6833C112.305 29.0803 111.928 29.3845 111.469 29.5996C111.011 29.8148 110.46 29.9224 109.82 29.9224C109.181 29.9224 108.63 29.8148 108.167 29.5996C107.705 29.3845 107.324 29.0803 107.029 28.6907C106.733 28.2975 106.515 27.819 106.37 27.2588C106.226 26.6949 106.156 26.0606 106.156 25.3557C106.156 24.6509 106.222 24.024 106.352 23.4601C106.481 22.8925 106.692 22.4102 106.984 22.0096C107.276 21.6089 107.653 21.301 108.116 21.0859C108.578 20.8707 109.136 20.7668 109.794 20.7668C110.453 20.7668 110.974 20.8744 111.436 21.0859C111.898 21.301 112.279 21.6052 112.579 22.0022C112.878 22.3991 113.104 22.8814 113.248 23.449C113.396 24.0165 113.466 24.6546 113.466 25.3594L113.474 25.352ZM112.453 25.352C112.453 24.892 112.412 24.432 112.335 23.9646C112.257 23.5009 112.117 23.0817 111.913 22.7107C111.713 22.3398 111.44 22.0356 111.1 21.8019C110.759 21.5681 110.327 21.4494 109.794 21.4494C109.262 21.4494 108.807 21.5644 108.467 21.7944C108.127 22.0244 107.861 22.3249 107.672 22.6922C107.483 23.0594 107.354 23.4786 107.287 23.9423C107.221 24.4061 107.188 24.8772 107.188 25.352C107.188 25.7972 107.225 26.2498 107.302 26.7098C107.376 27.1698 107.513 27.5853 107.705 27.9599C107.898 28.3346 108.164 28.6351 108.508 28.8725C108.848 29.1062 109.288 29.2249 109.824 29.2249C110.36 29.2249 110.804 29.1062 111.148 28.8725C111.492 28.6388 111.762 28.3383 111.954 27.9674C112.146 27.6001 112.279 27.1846 112.349 26.7246C112.42 26.2646 112.457 25.8083 112.457 25.3557L112.453 25.352Z" fill="#3F2825"/>
<path d="M116.095 26.0903C116.095 26.4946 116.11 26.8841 116.143 27.2625C116.173 27.6409 116.265 27.9748 116.41 28.2604C116.557 28.5498 116.783 28.7835 117.09 28.9579C117.397 29.1322 117.829 29.2212 118.384 29.2212C118.939 29.2212 119.368 29.1248 119.678 28.9356C119.985 28.7464 120.214 28.5053 120.362 28.2159C120.507 27.9266 120.599 27.6112 120.629 27.2699C120.658 26.9287 120.677 26.6022 120.677 26.2943V20.8448H121.531V26.3648C121.531 26.8099 121.494 27.244 121.416 27.6669C121.342 28.0898 121.187 28.4682 120.954 28.802C120.721 29.1359 120.384 29.403 119.944 29.6108C119.504 29.8148 118.924 29.9187 118.195 29.9187C117.633 29.9187 117.16 29.8519 116.772 29.7221C116.384 29.5922 116.069 29.3993 115.822 29.1433C115.578 28.8911 115.4 28.572 115.297 28.1937C115.189 27.8116 115.138 27.3775 115.138 26.8841V21.8612C115.138 21.6312 115.101 21.4272 115.027 21.2528C114.949 21.0785 114.827 20.9375 114.653 20.8373H116.099V26.0866L116.095 26.0903Z" fill="#3F2825"/>
<path d="M126.389 20.8448C126.774 20.8448 127.129 20.893 127.451 20.9931C127.772 21.0933 128.046 21.238 128.275 21.4346C128.505 21.6275 128.682 21.8761 128.811 22.1728C128.937 22.4696 129 22.8183 129 23.2153C129 23.8348 128.889 24.317 128.667 24.6694C128.445 25.0182 128.161 25.2778 127.813 25.4485C127.465 25.6191 127.077 25.723 126.652 25.7564C126.227 25.7935 125.809 25.812 125.406 25.812H124.348V29.7851H123.435V21.813C123.435 21.6312 123.398 21.4531 123.328 21.2788C123.258 21.1044 123.132 20.9635 122.947 20.8522H126.386L126.389 20.8448ZM128.065 23.2227C128.065 22.8591 128.005 22.5623 127.891 22.3361C127.776 22.1098 127.613 21.9354 127.41 21.8056C127.203 21.6794 126.959 21.5904 126.67 21.5422C126.382 21.494 126.064 21.4717 125.716 21.4717H124.947C124.803 21.4717 124.692 21.4791 124.615 21.4977C124.533 21.5125 124.474 21.5422 124.437 21.5867C124.396 21.6312 124.374 21.6869 124.363 21.7611C124.356 21.8315 124.352 21.9243 124.352 22.0356V25.1517H125.646C125.953 25.1517 126.253 25.1295 126.541 25.0812C126.829 25.033 127.085 24.9403 127.31 24.7956C127.536 24.6546 127.717 24.458 127.857 24.2057C127.994 23.9572 128.065 23.6307 128.065 23.2264V23.2227Z" fill="#3F2825"/>
</svg>
