<svg width="126" height="30" viewBox="0 0 126 30" fill="none" xmlns="http://www.w3.org/2000/svg">
<path d="M24.6812 16.6202H30.1074C28.3034 14.6802 27.8049 12.3723 27.7727 12.2294C26.6932 7.28474 22.7841 3.39764 17.817 2.32583V5.66988C21.3567 6.70954 24.0608 9.69275 24.6812 13.3798H16.6801V0C14.5462 1.92926 12.2653 2.32583 12.2653 2.32583C7.30539 3.40479 3.39986 7.29904 2.32754 12.2437H5.68436C6.72799 8.7174 9.72258 6.02715 13.4201 5.4055V13.3798H0C1.93663 15.5055 2.33471 17.7778 2.33471 17.7778C3.4142 22.7188 7.3269 26.6059 12.2868 27.6777V24.3337C8.7471 23.294 6.04299 20.3108 5.42256 16.6238H13.4237V30C15.3711 28.1994 17.6879 27.7063 17.8313 27.6742C22.7948 26.5988 26.6968 22.7045 27.7727 17.7563H24.4158C23.3722 21.2826 20.3776 23.9728 16.6765 24.5945V16.6238H24.6776L24.6812 16.6202Z" fill="#D81F36"/>
<path d="M38.5569 13.6191L45.8156 4.62305H49.4988L41.8527 14.1157L49.9973 25.3483H45.231L38.5533 15.9378V25.3769H34.6477V7.46335C34.6477 6.83812 34.5545 6.28793 34.368 5.80919C34.1851 5.33044 33.8336 4.93744 33.3172 4.62305H38.5461L38.5533 6.03069V13.6191H38.5569Z" fill="black"/>
<path d="M67.5668 19.607C67.5668 20.5466 67.409 21.3397 67.0934 21.9935C66.7814 22.6473 66.3654 23.1904 65.8489 23.6227C65.3325 24.055 64.7515 24.3837 64.1024 24.6159C63.4568 24.8446 62.8113 25.016 62.1622 25.1268C61.5166 25.2376 60.889 25.3019 60.2793 25.3197C59.6697 25.3376 59.1532 25.3483 58.7265 25.3483H52.852V7.46335C52.852 6.83812 52.7588 6.28793 52.5759 5.80918C52.3894 5.33044 52.0415 4.93744 51.5215 4.62305H59.1389C60.1538 4.62305 61.115 4.69093 62.0187 4.83026C62.9225 4.96603 63.7115 5.22683 64.3893 5.60197C65.0635 5.98067 65.5943 6.50944 65.9816 7.18825C66.369 7.87064 66.5626 8.76024 66.5626 9.8642C66.5626 10.4537 66.4909 10.9789 66.3403 11.4362C66.1932 11.8971 65.9996 12.3044 65.7557 12.6652C65.5154 13.0225 65.2393 13.3297 64.9237 13.5905C64.6116 13.8478 64.296 14.0693 63.984 14.2515C64.4646 14.4194 64.9201 14.6338 65.354 14.9017C65.788 15.1697 66.1645 15.5127 66.4909 15.9378C66.8137 16.3594 67.0719 16.8703 67.2655 17.4705C67.4592 18.0671 67.556 18.7817 67.556 19.6105L67.5668 19.607ZM62.6607 10.0035C62.6607 8.86027 62.3236 8.085 61.6493 7.67056C60.9751 7.25613 59.9888 7.04891 58.6978 7.04891C58.6942 7.04891 56.6751 7.04534 56.6751 7.04534V13.1225H58.3642C58.9739 13.1225 59.5406 13.0761 60.0677 12.9867C60.5949 12.8939 61.0468 12.7331 61.4234 12.5044C61.8035 12.2758 62.1012 11.9578 62.3236 11.5505C62.5459 11.1468 62.6571 10.6323 62.6571 10.0071L62.6607 10.0035ZM63.6577 19.0532C63.6577 18.428 63.5357 17.8956 63.2955 17.4526C63.0552 17.0096 62.7288 16.6523 62.3128 16.3772C61.8968 16.1021 61.4198 15.9056 60.8747 15.7842C60.3296 15.6663 59.7414 15.6055 59.1174 15.6055H56.6786V23.001C56.6786 23.001 59.2608 23.0082 59.2572 23.001C60.828 23.001 61.9542 22.6795 62.6356 22.0364C63.3206 21.3933 63.6613 20.4001 63.6613 19.0568L63.6577 19.0532Z" fill="black"/>
<path d="M70.6116 7.46335C70.6116 6.83812 70.5184 6.28793 70.3319 5.80918C70.149 5.33044 69.7975 4.93744 69.2811 4.62305H74.5566L74.5458 6.03069V25.3483H70.6116V7.46335Z" fill="black"/>
<path d="M79.4842 12.7863H83.5009V25.3801H86.1261V12.7863H90.1607V10.6069H79.4842V12.7863Z" fill="black"/>
<path d="M94.6365 18.8456H99.6466V16.6484H94.6365V12.7863H100.106V10.6069H91.0645C91.4339 10.832 91.685 11.1143 91.8141 11.4537C91.9468 11.7931 92.0113 12.1861 92.0113 12.6291V25.3836H100.142V23.2043H94.6329V18.8456H94.6365Z" fill="black"/>
<path d="M110.879 23.2834C110.294 23.3906 109.739 23.4406 109.208 23.4406C108.465 23.4406 107.798 23.3013 107.21 23.0262C106.622 22.7475 106.113 22.3653 105.69 21.8758C105.277 21.3863 104.962 20.8147 104.736 20.1538C104.51 19.4928 104.399 18.7854 104.399 18.0351C104.399 17.2849 104.506 16.5739 104.725 15.9058C104.944 15.2377 105.266 14.6554 105.69 14.1516C106.098 13.6622 106.601 13.2692 107.192 12.9726C107.78 12.6761 108.448 12.526 109.19 12.526C109.681 12.526 110.169 12.5832 110.653 12.6939C111.137 12.8047 111.636 13.0083 112.156 13.2977L112.353 10.9612C111.837 10.7504 111.302 10.5932 110.754 10.4967C110.205 10.3967 109.688 10.3467 109.211 10.3467C108.06 10.3467 107.013 10.5325 106.081 10.9004C105.144 11.272 104.355 11.7901 103.703 12.4653C103.039 13.137 102.534 13.9587 102.182 14.9197C101.831 15.8844 101.655 16.9669 101.655 18.1673C101.655 19.3678 101.838 20.4503 102.2 21.3756C102.566 22.3009 103.079 23.0798 103.742 23.7122C104.406 24.3445 105.198 24.8233 106.127 25.1484C107.056 25.4735 108.082 25.6343 109.208 25.6343C109.699 25.6343 110.219 25.5914 110.768 25.5057C111.317 25.4199 111.851 25.3056 112.367 25.1591L112.249 22.8226C111.919 23.0191 111.46 23.1727 110.875 23.2799L110.879 23.2834Z" fill="black"/>
<path d="M122.89 10.6069H121.939C122.309 10.832 122.56 11.1143 122.689 11.4537C122.814 11.7788 122.879 12.1539 122.886 12.5755V16.6484H117.119V10.6069H113.547C113.917 10.832 114.168 11.1143 114.297 11.4537C114.43 11.7931 114.494 12.1861 114.494 12.6291V25.3836H117.119V18.8492H122.886V25.3836H125.511V10.6069H122.89Z" fill="black"/>
</svg>
