<svg width="144" height="32" viewBox="0 0 144 32" fill="none" xmlns="http://www.w3.org/2000/svg">
<path fill-rule="evenodd" clip-rule="evenodd" d="M16.0557 0.771911C15.4382 1.19646 13.7786 1.89118 12.3506 2.31573C7.95068 3.62798 4.90164 6.25248 3.12624 10.0734C2.04556 12.505 2.12276 12.7365 4.05253 12.7365C5.59635 12.7365 5.78933 12.6207 6.25248 11.5015C7.06299 9.5331 9.30153 7.29456 11.4243 6.32967C14.4347 4.90163 14.3575 4.82444 14.2418 9.72608L14.126 14.0874L7.06299 14.2032L0 14.2804L0.964889 15.94C1.46663 16.8277 2.16135 18.5259 2.50871 19.6837C3.62798 23.6205 6.36827 26.8625 10.112 28.5607C12.5436 29.6414 12.7751 29.5642 12.7751 27.6344C12.7751 26.0906 12.6593 25.8976 11.5401 25.4345C9.5717 24.624 7.33315 22.3854 6.36827 20.2627C4.94023 17.2522 4.86304 17.3294 9.80327 17.4452L14.126 17.561L14.2418 24.5854L14.3189 31.6098L15.5926 30.8764C16.2487 30.4519 17.9469 29.7572 19.3364 29.3326C23.7749 27.9818 27.1327 25.0485 28.8309 21.0346C29.6414 19.1048 29.5256 18.9118 27.7116 18.9118C26.2064 18.9118 25.9748 19.0276 25.4345 20.2241C24.3924 22.3468 22.3854 24.3924 20.3013 25.3187C17.2908 26.7467 17.368 26.8239 17.4838 21.9223L17.5996 17.561L24.624 17.4452L31.6484 17.368L30.8764 16.0172C30.4133 15.2838 29.7572 13.6242 29.3712 12.3506C28.059 7.98928 25.3959 4.82444 21.6135 3.08764C19.182 2.00697 18.9504 2.08416 18.9504 3.97534C18.9504 5.48057 19.0662 5.71214 20.2627 6.25248C22.3468 7.25596 24.238 9.14715 25.2801 11.2699C26.8239 14.3575 26.9011 14.3189 21.9609 14.2032L17.5996 14.0874L17.4066 7.06299L17.2136 0L16.0557 0.771911Z" fill="#949494"/>
<path fill-rule="evenodd" clip-rule="evenodd" d="M36.55 5.67343C36.9746 6.52253 37.0903 8.83826 37.0903 16.8661V27.0168H40.9499V22.1923C40.9499 19.5292 41.1043 17.3679 41.2587 17.3679C41.4516 17.3679 43.1112 19.5292 44.9638 22.1923L48.3602 27.0168H50.8304C52.7601 27.0168 53.2619 26.901 53.0689 26.515C52.8759 26.2834 50.9461 23.5818 48.7848 20.5327C46.3533 17.2135 44.8866 14.8592 45.0796 14.5504C45.234 14.2802 47.048 11.9645 49.1322 9.34L52.9531 4.63135H50.9075L48.862 4.66994L45.234 9.26281C43.227 11.8101 41.4516 13.8943 41.2587 13.8943C41.1043 13.8943 40.9499 11.8101 40.9499 9.26281V4.63135H35.9711L36.55 5.67343Z" fill="#949494"/>
<path fill-rule="evenodd" clip-rule="evenodd" d="M55.9636 5.32613C56.2337 5.86647 56.3881 9.76462 56.3881 16.5574V27.0168H60.8266C66.8475 27.0168 68.9317 26.5151 70.8229 24.6625L72.2895 23.1573L72.1351 20.417C71.9807 17.7153 71.9421 17.5995 70.3597 16.2101C68.7773 14.782 68.7773 14.7434 69.5106 14.2417C70.5913 13.5084 71.479 10.7681 71.2088 9.18568C70.5141 5.5963 69.0475 4.90158 61.4827 4.7086C55.6162 4.55422 55.539 4.55422 55.9636 5.32613ZM66.23 8.29799C68.7001 10.7295 66.3844 13.8943 62.1775 13.8943H60.6336V7.3331H62.9494C64.9177 7.3331 65.4581 7.48748 66.23 8.29799ZM66.3844 17.175C67.851 17.9083 68.4685 19.7223 67.9668 21.652C67.3879 23.7362 66.3844 24.3151 63.2581 24.3151H60.6336V16.596H62.9494C64.2616 16.596 65.8054 16.8662 66.3844 17.175Z" fill="#949494"/>
<path fill-rule="evenodd" clip-rule="evenodd" d="M75.0683 5.48045C75.6087 6.21377 75.6858 7.95056 75.6858 16.6732V27.0168H79.9314V4.63135H74.4894L75.0683 5.48045Z" fill="#949494"/>
<path fill-rule="evenodd" clip-rule="evenodd" d="M110.576 11.8099C110.692 12.1573 110.808 14.666 110.808 17.4063V22.3851H113.124V11.1924H111.734C110.615 11.1924 110.383 11.3082 110.576 11.8099Z" fill="#949494"/>
<path fill-rule="evenodd" clip-rule="evenodd" d="M125.474 11.9257C125.667 12.3502 125.86 14.859 125.86 17.5221V22.3851H127.018C127.79 22.3851 128.176 21.626 128.176 20.108C128.176 17.8694 128.214 17.7922 129.257 17.6764C129.99 17.5992 130.299 17.3291 130.299 16.7887C130.299 16.2484 129.99 15.9782 129.257 15.901C128.214 15.7853 128.176 15.7081 128.176 13.4695V11.1924H126.632C125.204 11.1924 125.088 11.2696 125.474 11.9257Z" fill="#949494"/>
<path fill-rule="evenodd" clip-rule="evenodd" d="M141.221 11.6555C141.491 11.9257 141.684 12.6204 141.684 13.1994C141.684 14.7818 140.218 14.666 138.481 12.9292C136.937 11.3854 135.162 11.1538 133.193 12.1573C131.07 13.2379 130.607 15.7853 132.151 17.5992C132.846 18.4097 133.502 18.6799 135.046 18.8343C137.014 18.9887 137.13 18.9501 138.597 17.4063C139.446 16.5572 140.449 15.8238 140.912 15.8238C141.568 15.8238 141.684 16.0554 141.684 17.7536C141.684 19.6448 141.723 19.6834 142.842 19.6834H144V11.1924H142.379C141.105 11.1924 140.874 11.3082 141.221 11.6555ZM136.358 13.5853C137.554 14.5116 137.4 16.4414 136.088 17.0589C134.235 17.908 132.769 15.4379 134.235 13.8169C134.969 13.0064 135.509 12.9292 136.358 13.5853Z" fill="#949494"/>
<path fill-rule="evenodd" clip-rule="evenodd" d="M86.7628 11.8488C86.6084 11.9646 86.4926 12.4277 86.4926 12.8137C86.4926 13.4312 86.8786 13.5084 90.7767 13.5084H95.0608L94.7907 15.1294C94.6363 16.0557 94.4433 16.9048 94.3275 17.0592C94.2503 17.2522 92.089 17.3679 89.5417 17.3679C85.219 17.3679 84.9488 17.4065 84.9488 18.1399C84.9488 18.8346 85.219 18.9118 88.0364 18.9118H91.1241V20.0696C91.1241 21.2275 91.0855 21.2275 89.0013 21.2275C86.9172 21.2275 86.8786 21.2661 86.8786 22.1924V23.1573H94.9836V25.0871C94.9836 26.9782 95.0222 27.0168 96.1415 27.0168H97.338L97.2222 24.238L97.1064 21.4205L95.2924 21.3047C93.517 21.1889 93.4398 21.1117 93.4398 20.031V18.9118H96.3345C98.959 18.9118 99.2291 18.8346 99.2291 18.1399C99.2291 17.5223 98.959 17.3679 98.0713 17.3679H96.8748L97.145 14.4733L97.4151 11.5786H92.2048C89.3487 11.5786 86.8786 11.6944 86.7628 11.8488Z" fill="#949494"/>
<path fill-rule="evenodd" clip-rule="evenodd" d="M101.892 13.0837C99.8081 15.1679 100.541 18.4099 103.32 19.2976C107.952 20.8414 111.232 14.7433 106.948 12.5434C105.096 11.5785 103.204 11.81 101.892 13.0837ZM105.945 14.1258C107.527 15.6696 105.829 18.7958 104.054 17.5994C103.05 16.9433 102.857 14.9749 103.668 14.1258C104.478 13.3539 105.173 13.3539 105.945 14.1258Z" fill="#949494"/>
<path fill-rule="evenodd" clip-rule="evenodd" d="M118.913 13.7398C118.913 15.9783 117.987 17.9081 116.443 18.9887C115.787 19.4519 115.169 19.8764 115.092 19.9536C114.822 20.1466 115.902 21.2273 116.443 21.2273C116.713 21.2273 117.639 20.5712 118.488 19.7607L119.994 18.3326L121.383 19.5677C122.85 20.9185 123.93 21.1887 124.664 20.301C125.011 19.915 124.818 19.6063 123.776 18.873C121.962 17.6379 121.229 16.2485 121.229 13.9327C121.229 12.003 121.19 11.9644 120.071 11.9644C118.951 11.9644 118.913 12.0415 118.913 13.7398Z" fill="#949494"/>
<path fill-rule="evenodd" clip-rule="evenodd" d="M133.965 23.7362V27.0168H144V20.4556H142.842C141.877 20.4556 141.684 20.6099 141.684 21.4205C141.684 22.4239 141.646 22.4239 139.098 22.3082C136.705 22.1924 136.474 22.1152 136.358 21.3047C136.242 20.6485 135.972 20.4556 135.084 20.4556H133.965V23.7362ZM141.684 24.7011C141.684 25.4344 141.491 25.5116 139.098 25.3958C136.976 25.3186 136.474 25.1642 136.358 24.5853C136.242 24.0064 136.551 23.9292 138.944 23.9292C141.337 23.9292 141.684 24.0064 141.684 24.7011Z" fill="#949494"/>
<path fill-rule="evenodd" clip-rule="evenodd" d="M103.475 24.5082V27.0169H113.51V25.0872H105.79V23.5433C105.79 22.0767 105.713 21.9995 104.633 21.9995H103.475V24.5082Z" fill="#949494"/>
<path fill-rule="evenodd" clip-rule="evenodd" d="M118.218 24.3924L118.334 26.824L123.467 26.9397L128.562 27.0555V25.0872H120.457V23.5433C120.457 22.0767 120.38 21.9995 119.299 21.9995H118.102L118.218 24.3924Z" fill="#949494"/>
</svg>
