<svg width="130" height="33" viewBox="0 0 130 33" fill="none" xmlns="http://www.w3.org/2000/svg">
<path d="M90.7174 10.4961C94.3912 10.4961 96.5182 11.4629 96.5358 13.2383C96.5182 14.9961 94.3912 15.9629 90.7174 15.9629C87.026 15.9629 84.8815 14.9961 84.8815 13.2383C84.8815 11.4629 87.026 10.4961 90.7174 10.4961ZM90.7174 12.1484C88.3619 12.1484 87.2194 12.5 87.2369 13.2383C87.2194 14.0117 88.3619 14.3281 90.7174 14.3281C93.0905 14.3281 94.2155 14.0117 94.2155 13.2383C94.2155 12.5 93.0905 12.1484 90.7174 12.1484ZM98.0123 16.6836V18.4414H91.8248V19.5137H96.2369V23.5918H87.3248V24.5586H96.6588V26.2461H85.1276V22.0273H94.0221V21.1484H85.11V19.5137H89.5748V18.4414H83.4225V16.6836H98.0123ZM110.402 18.6172V20.3926H99.0818V11.5332H110.279V13.3438H101.367V15.0312H109.91V16.7891H101.367V18.6172H110.402ZM112.002 22.6602V24.4883H97.3591V22.6602H112.002ZM123.917 10.3555V16.4023H126.272V18.248H123.917V26.3867H121.702V10.3555H123.917ZM119.347 11.6914V17.8965H114.196V20.7969C116.525 20.7881 118.45 20.6826 120.577 20.3223L120.77 22.1152C118.327 22.5547 116.13 22.6602 113.317 22.6602H111.964V16.1211H117.114V13.502H111.946V11.6914H119.347Z" fill="#949494"/>
<path d="M26.462 17.8561H32.2811C30.3448 15.7707 29.8099 13.2932 29.7795 13.1377C28.6217 7.82788 24.4309 3.64693 19.1094 2.49776V6.09061C22.9041 7.20936 25.8019 10.4135 26.4654 14.3748H17.8873V0C15.5989 2.07189 13.1548 2.49776 13.1548 2.49776C7.8367 3.65707 3.65261 7.8414 2.50165 13.1512H6.1001C7.2206 9.36236 10.4297 6.46916 14.3938 5.80669V14.3714H0C2.07512 16.6562 2.50165 19.0965 2.50165 19.0965C3.65938 24.4064 7.85024 28.5806 13.1717 29.7331V26.1403C9.37696 25.0215 6.47924 21.8207 5.81574 17.8595H14.3938V32.2309C16.4825 30.2976 18.9638 29.7635 19.1195 29.7331C24.4376 28.5772 28.6251 24.3928 29.7761 19.0796H26.1776C25.0571 22.8685 21.848 25.7617 17.8839 26.4242V17.8595H26.4586L26.462 17.8561Z" fill="#949494"/>
<path d="M41.3331 14.6314L49.1122 4.96484H53.0627L44.8672 15.1654L53.5976 27.2317H48.4894L41.3331 17.1224V27.2621H37.1456V8.02029C37.1456 7.34768 37.0475 6.7562 36.8477 6.24245C36.6514 5.7287 36.2756 5.30622 35.7205 4.96822H41.3229L41.3331 6.48243V14.6348V14.6314Z" fill="#949494"/>
<path d="M72.4293 21.0668C72.4293 22.074 72.2601 22.9291 71.9215 23.6322C71.5864 24.3352 71.1396 24.9165 70.5844 25.3829C70.0292 25.846 69.4063 26.2009 68.7124 26.451C68.0184 26.6977 67.3278 26.8802 66.6339 26.9985C65.9399 27.1168 65.2663 27.1878 64.6163 27.2047C63.963 27.225 63.4078 27.2351 62.9542 27.2351H56.6577V8.02032C56.6577 7.34772 56.5596 6.75624 56.3632 6.24249C56.1635 5.72874 55.7877 5.30625 55.236 4.96826H63.401C64.4877 4.96826 65.5168 5.04262 66.4883 5.19134C67.4599 5.34005 68.3062 5.61721 69.0272 6.01942C69.7482 6.425 70.317 6.99283 70.7333 7.72289C71.1497 8.45633 71.3562 9.41285 71.3562 10.5992C71.3562 11.2312 71.2783 11.7957 71.1192 12.2892C70.9601 12.7826 70.7536 13.222 70.493 13.6073C70.2357 13.9926 69.9412 14.3239 69.6027 14.601C69.2675 14.8782 68.929 15.1148 68.5939 15.3108C69.1084 15.4899 69.5959 15.7232 70.0631 16.0071C70.5268 16.2944 70.9331 16.6661 71.2817 17.1191C71.627 17.572 71.9046 18.1229 72.1145 18.7651C72.321 19.4073 72.4259 20.1745 72.4259 21.0634L72.4293 21.0668ZM67.1721 10.7479C67.1721 9.52101 66.8099 8.68617 66.0889 8.24002C65.3678 7.79387 64.3116 7.5708 62.9271 7.5708C62.9203 7.5708 60.7572 7.56742 60.7572 7.56742V14.094H62.5683C63.2216 14.094 63.8309 14.0433 64.3963 13.9453C64.9616 13.8473 65.4457 13.6749 65.8519 13.4248C66.2581 13.1781 66.5797 12.8367 66.8167 12.4007C67.0536 11.9647 67.1721 11.4138 67.1721 10.7412V10.7479ZM68.2418 20.4719C68.2418 19.7993 68.1132 19.2281 67.8559 18.7516C67.5987 18.275 67.2466 17.8897 66.7997 17.5956C66.3563 17.2982 65.8417 17.0886 65.2561 16.9602C64.6705 16.8318 64.0442 16.7675 63.3706 16.7675H60.7538V24.7137C60.7538 24.7137 63.5195 24.7205 63.5161 24.7137C65.1986 24.7137 66.4071 24.369 67.1383 23.6761C67.8695 22.9866 68.2385 21.9152 68.2385 20.4719H68.2418Z" fill="#949494"/>
<path d="M75.6927 8.02032C75.6927 7.34772 75.5946 6.75624 75.3948 6.24249C75.1985 5.72874 74.8194 5.30625 74.2676 4.96826H79.9242L79.9107 6.48246V27.2385H75.6927V8.02032Z" fill="#949494"/>
</svg>
