<svg width="126" height="30" viewBox="0 0 126 30" fill="none" xmlns="http://www.w3.org/2000/svg">
<path d="M25.1699 16.6202H30.596C28.7921 14.6802 28.2936 12.3723 28.2613 12.2294C27.1818 7.28474 23.2727 3.39764 18.3056 2.32583V5.66988C21.8453 6.70954 24.5494 9.69275 25.1699 13.3798H17.1687V0C15.0349 1.92926 12.754 2.32583 12.754 2.32583C7.79403 3.40479 3.8885 7.29904 2.81619 12.2437H6.17301C7.21663 8.7174 10.2112 6.02715 13.9088 5.4055V13.3798H0.488647C2.42527 15.5055 2.82336 17.7778 2.82336 17.7778C3.90285 22.7188 7.81555 26.6059 12.7755 27.6777V24.3337C9.23575 23.294 6.53164 20.3108 5.9112 16.6238H13.9123V30C15.8597 28.1994 18.1765 27.7063 18.32 27.6742C23.2835 26.5988 27.1854 22.7045 28.2613 17.7563H24.9045C23.8609 21.2826 20.8663 23.9728 17.1652 24.5945V16.6238H25.1663L25.1699 16.6202Z" fill="#949494"/>
<path d="M39.0455 13.6191L46.3043 4.62305H49.9874L42.3413 14.1157L50.4859 25.3483H45.7197L39.0419 15.9378V25.3769H35.1364V7.46335C35.1364 6.83812 35.0431 6.28793 34.8566 5.80919C34.6737 5.33044 34.3223 4.93744 33.8058 4.62305H39.0347L39.0419 6.03069V13.6191H39.0455Z" fill="#949494"/>
<path d="M68.0554 19.607C68.0554 20.5466 67.8976 21.3397 67.582 21.9935C67.27 22.6473 66.854 23.1904 66.3376 23.6227C65.8211 24.055 65.2402 24.3837 64.591 24.6159C63.9455 24.8446 63.2999 25.016 62.6508 25.1268C62.0053 25.2376 61.3777 25.3019 60.768 25.3197C60.1583 25.3376 59.6419 25.3483 59.2151 25.3483H53.3407V7.46335C53.3407 6.83812 53.2474 6.28793 53.0645 5.80919C52.878 5.33044 52.5302 4.93744 52.0101 4.62305H59.6275C60.6425 4.62305 61.6036 4.69093 62.5074 4.83026C63.4111 4.96603 64.2001 5.22683 64.8779 5.60197C65.5522 5.98067 66.083 6.50944 66.4703 7.18825C66.8576 7.87064 67.0513 8.76024 67.0513 9.8642C67.0513 10.4537 66.9795 10.9789 66.8289 11.4362C66.6819 11.8971 66.4882 12.3044 66.2443 12.6652C66.0041 13.0225 65.7279 13.3297 65.4123 13.5905C65.1003 13.8478 64.7847 14.0693 64.4727 14.2515C64.9533 14.4194 65.4087 14.6338 65.8427 14.9017C66.2766 15.1697 66.6532 15.5127 66.9795 15.9378C67.3023 16.3594 67.5605 16.8703 67.7542 17.4705C67.9479 18.0671 68.0447 18.7817 68.0447 19.6105L68.0554 19.607ZM63.1493 10.0035C63.1493 8.86027 62.8122 8.085 62.138 7.67056C61.4637 7.25613 60.4775 7.04891 59.1864 7.04891C59.1828 7.04891 57.1637 7.04534 57.1637 7.04534V13.1225H58.8529C59.4626 13.1225 60.0292 13.0761 60.5564 12.9867C61.0836 12.8939 61.5355 12.7331 61.912 12.5044C62.2922 12.2758 62.5899 11.9578 62.8122 11.5505C63.0346 11.1468 63.1457 10.6323 63.1457 10.0071L63.1493 10.0035ZM64.1463 19.0532C64.1463 18.428 64.0244 17.8956 63.7841 17.4526C63.5438 17.0096 63.2175 16.6523 62.8014 16.3772C62.3854 16.1021 61.9084 15.9056 61.3633 15.7842C60.8182 15.6663 60.23 15.6055 59.606 15.6055H57.1673V23.001C57.1673 23.001 59.7495 23.0082 59.7459 23.001C61.3167 23.001 62.4428 22.6795 63.1242 22.0364C63.8092 21.3933 64.1499 20.4001 64.1499 19.0568L64.1463 19.0532Z" fill="#949494"/>
<path d="M71.1003 7.46335C71.1003 6.83812 71.007 6.28793 70.8205 5.80919C70.6376 5.33044 70.2861 4.93744 69.7697 4.62305H75.0452L75.0345 6.03069V25.3483H71.1003V7.46335Z" fill="#949494"/>
<path d="M79.9728 12.7863H83.9895V25.3801H86.6147V12.7863H90.6494V10.6069H79.9728V12.7863Z" fill="#949494"/>
<path d="M95.1252 18.8456H100.135V16.6484H95.1252V12.7863H100.594V10.6069H91.5532C91.9226 10.832 92.1736 11.1143 92.3027 11.4537C92.4354 11.7931 92.5 12.1861 92.5 12.6291V25.3836H100.63V23.2043H95.1216V18.8456H95.1252Z" fill="#949494"/>
<path d="M111.368 23.2834C110.783 23.3906 110.227 23.4406 109.696 23.4406C108.954 23.4406 108.287 23.3013 107.699 23.0262C107.111 22.7475 106.601 22.3653 106.178 21.8758C105.766 21.3863 105.45 20.8147 105.224 20.1538C104.998 19.4928 104.887 18.7854 104.887 18.0351C104.887 17.2849 104.995 16.5739 105.214 15.9058C105.432 15.2377 105.755 14.6554 106.178 14.1516C106.587 13.6621 107.089 13.2692 107.681 12.9726C108.269 12.6761 108.936 12.526 109.679 12.526C110.17 12.526 110.658 12.5832 111.142 12.6939C111.626 12.8047 112.124 13.0083 112.644 13.2977L112.842 10.9612C112.325 10.7504 111.791 10.5932 111.242 10.4967C110.693 10.3967 110.177 10.3467 109.7 10.3467C108.549 10.3467 107.502 10.5325 106.569 10.9004C105.633 11.272 104.844 11.7901 104.191 12.4653C103.528 13.137 103.022 13.9587 102.671 14.9197C102.319 15.8844 102.144 16.9669 102.144 18.1673C102.144 19.3678 102.327 20.4503 102.689 21.3756C103.055 22.301 103.567 23.0798 104.231 23.7122C104.894 24.3445 105.687 24.8233 106.616 25.1484C107.545 25.4735 108.57 25.6343 109.696 25.6343C110.188 25.6343 110.708 25.5914 111.257 25.5057C111.805 25.4199 112.34 25.3056 112.856 25.1591L112.738 22.8226C112.408 23.0191 111.949 23.1727 111.364 23.2799L111.368 23.2834Z" fill="#949494"/>
<path d="M123.378 10.6069H122.428C122.797 10.832 123.048 11.1143 123.178 11.4537C123.303 11.7788 123.368 12.1539 123.375 12.5755V16.6484H117.608V10.6069H114.036C114.405 10.832 114.656 11.1143 114.786 11.4537C114.918 11.7931 114.983 12.1861 114.983 12.6291V25.3836H117.608V18.8492H123.375V25.3836H126V10.6069H123.378Z" fill="#949494"/>
</svg>
