<svg width="120" height="33" viewBox="0 0 120 33" fill="none" xmlns="http://www.w3.org/2000/svg">
<path d="M26.888 18.1718H32.8008C30.8333 16.0495 30.2898 13.5282 30.2588 13.37C29.0825 7.96629 24.8241 3.71141 19.417 2.54192V6.1983C23.2729 7.33683 26.2172 10.5976 26.8914 14.6289H18.1753V0C15.85 2.10852 13.3666 2.54192 13.3666 2.54192C7.96285 3.72173 3.71141 7.98005 2.54192 13.3838H6.1983C7.33683 9.5279 10.5976 6.58354 14.6255 5.90936V14.6255H0C2.10852 16.9507 2.54192 19.4342 2.54192 19.4342C3.71829 24.8379 7.97661 29.0859 13.3838 30.2588V26.6025C9.5279 25.4639 6.58354 22.2066 5.90936 18.1753H14.6255V32.8008C16.7478 30.8333 19.2691 30.2898 19.4273 30.2588C24.831 29.0825 29.0859 24.8241 30.2554 19.417H26.599C25.4605 23.2729 22.1997 26.2172 18.1718 26.8914V18.1753H26.8845L26.888 18.1718Z" fill="white"/>
<path d="M41.9985 14.8912L49.9028 5.05371H53.9169L45.5895 15.4347L54.4604 27.7143H49.2699L41.9985 17.4262V27.7453H37.7436V8.16318C37.7436 7.47868 37.6438 6.87674 37.4409 6.35391C37.2414 5.83108 36.8596 5.40112 36.2955 5.05715H41.9881L41.9985 6.59813V14.8946V14.8912Z" fill="white"/>
<path d="M73.5954 21.4393C73.5954 22.4644 73.4234 23.3346 73.0794 24.05C72.7389 24.7655 72.2848 25.3571 71.7207 25.8318C71.1566 26.303 70.5237 26.6642 69.8186 26.9187C69.1135 27.1698 68.4118 27.3556 67.7066 27.476C67.0015 27.5964 66.317 27.6686 65.6566 27.6858C64.9927 27.7064 64.4286 27.7167 63.9677 27.7167H57.5699V8.16218C57.5699 7.47768 57.4702 6.87574 57.2707 6.35291C57.0677 5.83008 56.6859 5.40012 56.1252 5.05615H64.4217C65.5259 5.05615 66.5715 5.13183 67.5587 5.28317C68.5459 5.43452 69.4058 5.71657 70.1385 6.12589C70.8711 6.53865 71.449 7.11652 71.8721 7.85949C72.2952 8.6059 72.505 9.57933 72.505 10.7867C72.505 11.4299 72.4259 12.0043 72.2642 12.5065C72.1025 13.0087 71.8927 13.4558 71.6279 13.848C71.3665 14.2401 71.0672 14.5772 70.7232 14.8592C70.3827 15.1413 70.0387 15.3821 69.6982 15.5816C70.221 15.7639 70.7164 16.0012 71.191 16.2901C71.6623 16.5825 72.075 16.9609 72.4293 17.4218C72.7802 17.8827 73.0622 18.4434 73.2755 19.0969C73.4853 19.7505 73.5919 20.5313 73.5919 21.4359L73.5954 21.4393ZM68.2535 10.938C68.2535 9.6894 67.8855 8.8398 67.1528 8.38576C66.4202 7.93172 65.347 7.7047 63.9402 7.7047C63.9333 7.7047 61.7354 7.70126 61.7354 7.70126V14.3433H63.5756C64.2394 14.3433 64.8586 14.2917 65.433 14.1919C66.0074 14.0922 66.4993 13.9168 66.9121 13.6622C67.3248 13.4111 67.6516 13.0637 67.8924 12.62C68.1332 12.1763 68.2535 11.6156 68.2535 10.9311V10.938ZM69.3405 20.8339C69.3405 20.1495 69.2098 19.5681 68.9484 19.0832C68.6869 18.5982 68.3292 18.206 67.8752 17.9068C67.4246 17.6041 66.9018 17.3908 66.3067 17.2601C65.7116 17.1294 65.0753 17.0641 64.3908 17.0641H61.7319V25.1507C61.7319 25.1507 64.5421 25.1576 64.5387 25.1507C66.2482 25.1507 67.4762 24.7999 68.2191 24.0948C68.9621 23.3931 69.337 22.3027 69.337 20.8339H69.3405Z" fill="white"/>
<path d="M76.9112 8.16218C76.9112 7.47768 76.8115 6.87574 76.6085 6.35291C76.409 5.83008 76.0238 5.40012 75.4631 5.05615H81.2108L81.1971 6.59713V27.7202H76.9112V8.16218Z" fill="white"/>
<path d="M90.5873 27.2049C90.4257 27.2633 90.2365 27.3184 90.0198 27.3734C89.8031 27.4284 89.5726 27.4766 89.325 27.5213C89.0773 27.566 88.8262 27.6039 88.5682 27.6314C88.3103 27.6623 88.0592 27.6761 87.8184 27.6761C87.1717 27.6761 86.6214 27.5729 86.1708 27.3631C85.7202 27.1533 85.3487 26.8609 85.0632 26.4791C84.7777 26.1007 84.5645 25.6467 84.4338 25.117C84.2996 24.5873 84.2343 24.0025 84.2343 23.3627C84.2343 22.7814 84.303 22.2414 84.4372 21.7427C84.5713 21.2405 84.7846 20.8071 85.0701 20.439C85.3556 20.071 85.7202 19.7855 86.1639 19.5791C86.6042 19.3727 87.1305 19.2695 87.7427 19.2695C88.2002 19.2695 88.5854 19.3177 88.9053 19.4071C89.2252 19.5 89.4901 19.6273 89.7068 19.7889C89.92 19.9506 90.0886 20.1432 90.209 20.3633C90.3294 20.5835 90.4222 20.8208 90.4807 21.0685L89.6965 21.0926C89.6586 21.0926 89.6036 21.0685 89.5245 21.0203C89.4488 20.9722 89.3903 20.8999 89.3525 20.8036C89.3078 20.6798 89.2459 20.5594 89.1668 20.4493C89.0842 20.3393 88.981 20.243 88.8469 20.1638C88.7127 20.0813 88.5476 20.0194 88.3481 19.9712C88.1486 19.9231 87.9078 19.899 87.6189 19.899C87.2577 19.899 86.931 19.9815 86.6386 20.1466C86.3428 20.3118 86.0917 20.5491 85.8819 20.8518C85.672 21.1579 85.5104 21.5225 85.3969 21.9456C85.2834 22.3687 85.2249 22.8365 85.2249 23.3524C85.2249 23.7927 85.273 24.2295 85.3693 24.6629C85.4657 25.0963 85.6239 25.4885 85.8509 25.8324C86.0745 26.1764 86.3703 26.4585 86.7315 26.6717C87.0961 26.885 87.5501 26.9916 88.0936 26.9916C88.2105 26.9916 88.3447 26.9847 88.4891 26.9744C88.637 26.9641 88.7849 26.9434 88.9363 26.9125C89.0876 26.8815 89.2321 26.8471 89.3731 26.8024C89.5142 26.7577 89.6311 26.7027 89.7274 26.6373V24.3878C89.7274 24.233 89.6965 24.0782 89.6277 23.9234C89.5589 23.7686 89.4419 23.6207 89.2734 23.4831H90.5839V23.8684V27.2014L90.5873 27.2049Z" fill="white"/>
<path d="M95.2859 19.3276C95.6471 19.3276 95.9738 19.3724 96.2731 19.4618C96.5723 19.5512 96.8269 19.6854 97.0401 19.8642C97.2534 20.0431 97.4185 20.2667 97.5389 20.5315C97.6558 20.7964 97.7143 21.1059 97.7143 21.4602C97.7143 21.8145 97.6662 22.1413 97.5698 22.4027C97.4735 22.6641 97.3463 22.8808 97.1846 23.0528C97.0229 23.2248 96.8303 23.3624 96.6102 23.4656C96.39 23.5688 96.1561 23.6444 95.9154 23.696L98.3438 27.6138H97.2947L94.966 23.8199H93.3872V27.6138H92.5376V20.222C92.5376 20.0534 92.5066 19.8883 92.4378 19.7266C92.3725 19.565 92.2555 19.4343 92.0836 19.3311H95.2825L95.2859 19.3276ZM96.8406 21.4671C96.8406 21.1507 96.7856 20.8927 96.6824 20.6897C96.5758 20.4868 96.4279 20.3286 96.2352 20.2082C96.0426 20.0912 95.8156 20.0121 95.5473 19.9709C95.279 19.9296 94.9832 19.9089 94.6599 19.9089H93.941C93.8103 19.9089 93.7071 19.9158 93.6314 19.933C93.5592 19.9468 93.5042 19.9743 93.4663 20.0156C93.4285 20.0568 93.4078 20.1084 93.401 20.1772C93.3941 20.2426 93.3906 20.3286 93.3906 20.4318V23.1904H94.5945C94.88 23.1904 95.1586 23.1698 95.4269 23.125C95.6952 23.0803 95.9326 22.9978 96.1424 22.8774C96.3522 22.757 96.5207 22.585 96.6514 22.358C96.7787 22.1344 96.8441 21.8386 96.8441 21.4706L96.8406 21.4671Z" fill="white"/>
<path d="M105.557 23.5068C105.557 24.1535 105.492 24.7382 105.357 25.261C105.227 25.7839 105.02 26.2276 104.745 26.5956C104.47 26.9637 104.119 27.2457 103.693 27.4452C103.266 27.6447 102.754 27.7445 102.158 27.7445C101.563 27.7445 101.051 27.6447 100.621 27.4452C100.191 27.2457 99.8367 26.9637 99.5615 26.6025C99.2864 26.2379 99.0834 25.7942 98.9493 25.2748C98.8151 24.752 98.7498 24.1638 98.7498 23.5103C98.7498 22.8567 98.8117 22.2754 98.9321 21.7526C99.0524 21.2263 99.2485 20.7791 99.5202 20.4077C99.792 20.0362 100.143 19.7507 100.573 19.5512C101.003 19.3517 101.522 19.2554 102.134 19.2554C102.747 19.2554 103.232 19.3551 103.662 19.5512C104.092 19.7507 104.446 20.0327 104.724 20.4008C105.003 20.7688 105.213 21.216 105.347 21.7423C105.485 22.2685 105.55 22.8602 105.55 23.5137L105.557 23.5068ZM104.608 23.5068C104.608 23.0803 104.57 22.6538 104.497 22.2204C104.425 21.7904 104.295 21.4017 104.105 21.0578C103.92 20.7138 103.665 20.4317 103.349 20.215C103.032 19.9983 102.63 19.8883 102.134 19.8883C101.639 19.8883 101.216 19.9949 100.9 20.2082C100.583 20.4214 100.335 20.7 100.16 21.0406C99.9846 21.3811 99.8642 21.7698 99.8023 22.1997C99.7404 22.6297 99.7094 23.0665 99.7094 23.5068C99.7094 23.9196 99.7438 24.3392 99.8161 24.7657C99.8849 25.1923 100.012 25.5775 100.191 25.9249C100.37 26.2723 100.618 26.5509 100.937 26.7711C101.254 26.9878 101.663 27.0978 102.162 27.0978C102.661 27.0978 103.073 26.9878 103.393 26.7711C103.713 26.5544 103.964 26.2758 104.143 25.9318C104.322 25.5913 104.446 25.206 104.511 24.7795C104.577 24.353 104.611 23.9299 104.611 23.5103L104.608 23.5068Z" fill="white"/>
<path d="M107.996 24.1919C107.996 24.5668 108.009 24.928 108.04 25.2788C108.068 25.6297 108.154 25.9392 108.288 26.2041C108.426 26.4724 108.635 26.6891 108.921 26.8507C109.206 27.0124 109.609 27.095 110.125 27.095C110.641 27.095 111.04 27.0055 111.329 26.8301C111.614 26.6547 111.827 26.4311 111.965 26.1628C112.099 25.8945 112.185 25.6021 112.213 25.2857C112.24 24.9692 112.257 24.6665 112.257 24.3811V19.3282H113.052V24.4464C113.052 24.8592 113.018 25.2616 112.945 25.6537C112.876 26.0459 112.732 26.3967 112.515 26.7063C112.299 27.0158 111.986 27.2635 111.576 27.4561C111.167 27.6453 110.627 27.7416 109.949 27.7416C109.426 27.7416 108.986 27.6797 108.625 27.5593C108.264 27.4389 107.972 27.2601 107.741 27.0227C107.514 26.7888 107.349 26.493 107.253 26.1422C107.153 25.7879 107.105 25.3854 107.105 24.928V20.2706C107.105 20.0574 107.07 19.8682 107.002 19.7065C106.929 19.5449 106.816 19.4142 106.654 19.3213H107.999V24.1884L107.996 24.1919Z" fill="white"/>
<path d="M117.572 19.3276C117.929 19.3276 118.26 19.3724 118.559 19.4652C118.858 19.5581 119.113 19.6922 119.326 19.8745C119.539 20.0534 119.704 20.2839 119.825 20.559C119.942 20.8342 120 21.1575 120 21.5256C120 22.1 119.897 22.5472 119.691 22.8739C119.484 23.1973 119.219 23.438 118.896 23.5963C118.573 23.7545 118.211 23.8508 117.816 23.8818C117.42 23.9162 117.032 23.9334 116.657 23.9334H115.673V27.6173H114.823V20.2254C114.823 20.0568 114.789 19.8917 114.724 19.7301C114.658 19.5684 114.541 19.4377 114.369 19.3345H117.568L117.572 19.3276ZM119.13 21.5325C119.13 21.1954 119.075 20.9202 118.968 20.7104C118.862 20.5006 118.71 20.3389 118.521 20.2185C118.328 20.1016 118.101 20.019 117.833 19.9743C117.565 19.9296 117.269 19.9089 116.946 19.9089H116.23C116.096 19.9089 115.993 19.9158 115.921 19.933C115.845 19.9468 115.79 19.9743 115.756 20.0156C115.718 20.0568 115.697 20.1084 115.687 20.1772C115.68 20.2426 115.676 20.3286 115.676 20.4318V23.3211H116.88C117.166 23.3211 117.444 23.3005 117.713 23.2557C117.981 23.211 118.218 23.125 118.428 22.9909C118.638 22.8602 118.807 22.6779 118.937 22.444C119.064 22.2135 119.13 21.9108 119.13 21.5359V21.5325Z" fill="white"/>
</svg>
