<svg width="167" height="31" viewBox="0 0 167 31" fill="none" xmlns="http://www.w3.org/2000/svg">
<path d="M69.637 6.94908C67.9168 -0.152184 50.9654 -2.13604 31.7708 2.51457C27.2153 3.62104 22.9407 4.99979 19.094 6.55576C19.202 6.52118 19.3274 6.48661 19.4657 6.45203C19.7121 6.3872 19.9238 6.35262 20.0967 6.35262H20.5808C24.488 5.23319 28.8793 4.3558 33.5558 3.8285C50.8919 1.87922 65.5396 5.46658 66.2787 11.8417C66.4516 13.3458 65.8335 14.8672 64.5671 16.3454C68.4052 13.1384 70.3415 9.84058 69.637 6.94908Z" fill="#949494"/>
<path d="M18.826 6.64211L18.3852 6.81931C18.316 6.85389 18.2296 6.89711 18.1475 6.94466C18.463 6.81499 18.7785 6.68101 19.094 6.55566C18.9903 6.58592 18.8995 6.61617 18.826 6.64211Z" fill="#949494"/>
<path d="M17.8363 7.13924L17.7887 7.16517C17.7887 7.16517 17.7542 7.1911 17.7153 7.22136L17.6461 7.27755C18.5927 6.95339 19.5695 6.64652 20.5808 6.35693H20.0968C19.9239 6.35693 19.7164 6.39151 19.4657 6.45634C19.3274 6.49524 19.2021 6.52982 19.094 6.56007C18.7742 6.68542 18.463 6.8194 18.1475 6.94907C18.1345 6.95771 18.1172 6.96203 18.1043 6.975C18.0092 7.03119 17.9184 7.08737 17.8363 7.13924Z" fill="#949494"/>
<path d="M17.5121 7.37715C17.4516 7.42902 17.3997 7.47224 17.3479 7.51114C17.309 7.5414 17.283 7.56301 17.2701 7.57597C16.8033 8.0298 16.41 8.54845 16.0901 9.1233C15.7919 9.67221 15.6406 10.3724 15.6406 11.2066C15.6406 11.5394 15.6795 11.8895 15.7573 12.2568C15.8308 12.6199 15.9561 12.9743 16.1247 13.3201C16.2976 13.6702 16.5267 14.0246 16.8033 14.3617C17.0756 14.6945 17.4213 15.0014 17.8363 15.278C17.9314 15.3428 18.0481 15.4077 18.1993 15.4811C18.3636 15.5589 18.5365 15.6367 18.7137 15.7059C18.8865 15.7794 19.0551 15.8442 19.215 15.9047C19.3836 15.9652 19.4787 15.9868 19.5305 15.9912L19.5911 16.0041C19.6645 16.0257 19.738 16.0387 19.8028 16.043C19.9239 16.0517 20.0276 16.069 20.1184 16.0862C20.2048 16.0992 20.3517 16.1208 20.5376 16.1468C20.7191 16.1813 20.905 16.2116 21.0908 16.2418C21.2896 16.2721 21.4798 16.3067 21.6484 16.3499C21.7997 16.3845 21.912 16.4104 21.9855 16.4234C22.5906 16.5876 22.9969 16.8902 23.226 17.331C23.4248 17.72 23.5328 18.1047 23.5328 18.485C23.5328 18.8135 23.4377 19.1722 23.2562 19.544C23.0531 19.9632 22.6943 20.283 22.193 20.4905C22.0979 20.5251 22.0071 20.5596 21.9077 20.5985C21.7564 20.6461 21.6657 20.6634 21.5749 20.6634H16.3538V23.369H21.7867C21.8299 23.369 21.9164 23.3517 22.0547 23.3301C22.2232 23.3042 22.3702 23.2739 22.4912 23.248C22.582 23.2178 22.6771 23.1875 22.7851 23.1616C22.8715 23.1356 22.9493 23.1097 23.0099 23.0838C23.6063 22.8633 24.1077 22.5738 24.514 22.2323C24.9202 21.8865 25.253 21.5062 25.4994 21.0956C25.7501 20.685 25.9359 20.2528 26.0526 19.8119C26.1693 19.3711 26.2298 18.9302 26.2298 18.5023C26.2298 18.1436 26.1866 17.7632 26.0959 17.3699C26.0051 16.9809 25.8581 16.5876 25.6593 16.2116C25.4648 15.8312 25.1969 15.4682 24.8684 15.1224C24.5442 14.781 24.1379 14.4741 23.6539 14.2148C23.4594 14.1024 23.2216 14.003 22.9493 13.9036C22.6684 13.8042 22.4177 13.735 22.2016 13.6961C21.8472 13.6356 21.4496 13.5794 21.013 13.5189C20.5462 13.4541 20.2048 13.3892 19.9671 13.3201C19.3966 13.1688 18.973 12.8792 18.7093 12.4513C18.463 12.058 18.342 11.6388 18.342 11.2022C18.342 10.8392 18.4327 10.4761 18.6099 10.126C18.8044 9.74136 19.1502 9.42584 19.6429 9.20109C19.7639 9.15355 19.872 9.11897 19.9973 9.08872C20.1573 9.04982 20.2178 9.0455 20.2783 9.0455H26.2342V6.33984H20.5851C19.5738 6.62943 18.5926 6.94062 17.6504 7.26046L17.5164 7.35987L17.5121 7.37715Z" fill="#949494"/>
<path d="M35.7299 14.1324L30.3619 6.35254H27.4531V23.3817H30.1544V10.813L35.7299 18.9213L41.2968 10.813V23.3817H44.0241V20.6761V16.2156V13.5186V9.05819V6.35254H41.0937L35.7299 14.1324Z" fill="#949494"/>
<path d="M36.2226 26.9173C18.8865 28.8666 4.23884 25.2793 3.49976 18.9041C3.32687 17.4 3.94061 15.8786 5.207 14.4048C1.37327 17.6075 -0.558725 20.9053 0.14146 23.7968C1.86167 30.898 18.8174 32.8862 38.0076 28.2356C43.3455 26.9433 48.29 25.2706 52.6164 23.3818H52.409C47.767 24.994 42.2304 26.2431 36.2269 26.9173H36.2226Z" fill="#949494"/>
<path d="M52.4047 23.3817H52.6121C52.9017 23.2521 53.1913 23.1267 53.4766 22.9971C53.1265 23.1267 52.7677 23.2564 52.4047 23.3817Z" fill="#949494"/>
<path d="M53.4766 22.9973C53.697 22.9109 53.9174 22.8331 54.1378 22.7466V22.6904C53.9174 22.7942 53.7013 22.8936 53.4766 22.9973Z" fill="#949494"/>
<path d="M54.1378 22.6904V20.6763H45.2429V23.3819H52.4046C52.7677 23.2566 53.1221 23.1269 53.4765 22.9973C53.6969 22.8935 53.9174 22.7941 54.1378 22.6904Z" fill="#949494"/>
<path d="M51.9076 13.5186H45.2429V16.2199H51.9076V13.5186Z" fill="#949494"/>
<path d="M54.1378 6.35254H45.2429V9.05819H54.1378V6.35254Z" fill="#949494"/>
<path d="M79.3963 5.56582V6.85813C79.3963 8.03808 79.5563 9.02352 79.8718 9.81447C80.1873 10.6054 80.6022 11.2754 81.1122 11.8199C81.6266 12.3689 82.1971 12.8097 82.8281 13.1555C83.4592 13.4969 84.0945 13.7995 84.7299 14.0631L82.8281 15.913C82.1409 15.7012 81.3283 15.3079 80.3861 14.7244C79.4439 14.1409 78.5535 13.2722 77.7064 12.1095C76.8593 13.2722 75.9646 14.1409 75.0137 14.7244C74.0628 15.3036 73.2676 15.7012 72.6365 15.913L70.7348 14.0631C71.4739 13.7476 72.1654 13.3932 72.8094 13.0085C73.4534 12.6239 74.011 12.1484 74.4864 11.5822C74.9618 11.0333 75.3422 10.385 75.6231 9.62862C75.9041 8.87225 76.0467 7.95596 76.0467 6.88407V4.21731H78.0262C78.4844 4.21731 78.8258 4.33833 79.0592 4.57173C79.2883 4.80945 79.4007 5.14225 79.4007 5.5615L79.3963 5.56582ZM90.8543 18.2426V25.7675C90.8543 26.2775 90.7117 26.6837 90.4178 26.982C90.1282 27.2845 89.7176 27.4315 89.1903 27.4315H87.5263V20.4599H76.1461V18.2469H90.8543V18.2426ZM82.7763 10.5276V8.31469H88.032V3.69434H91.3859V15.0529C91.3859 15.5629 91.2433 15.9649 90.9537 16.2674C90.6598 16.5656 90.2535 16.7169 89.7262 16.7169H88.0363V10.5363H82.7806L82.7763 10.5276Z" fill="#949494"/>
<path d="M116.152 15.0961V16.155C116.152 16.544 116.039 16.8336 115.81 17.0237C115.581 17.2182 115.335 17.3133 115.071 17.3133H108.177V20.6111C108.177 21.1254 108.03 21.5274 107.741 21.8256C107.451 22.1238 107.041 22.2751 106.513 22.2751H104.849V17.309H94.7097V15.0874H116.152V15.0961ZM98.0377 10.1299V3.95361H111.691C112.206 3.95361 112.608 4.11353 112.906 4.42905C113.204 4.74456 113.355 5.1422 113.355 5.61763V9.26119C113.355 10.2121 113.079 11.0289 112.525 11.7032C111.968 12.3774 111.138 12.7189 110.032 12.7189H100.497C99.7579 12.7189 99.1614 12.4941 98.7163 12.0446C98.2668 11.5951 98.042 10.9555 98.042 10.1299H98.0377ZM100.493 26.6405C99.7536 26.6405 99.1571 26.4157 98.7119 25.9662C98.2624 25.521 98.0377 24.877 98.0377 24.0515V20.0881H101.392V23.5199C101.392 23.857 101.456 24.0904 101.59 24.2244C101.724 24.3541 101.893 24.4189 102.105 24.4189H113.753V25.4735C113.753 25.8625 113.641 26.1521 113.407 26.3466C113.182 26.5411 112.932 26.6362 112.672 26.6362H100.497L100.493 26.6405ZM108.839 10.506C109.189 10.506 109.478 10.4066 109.694 10.1991C109.915 10.0003 110.027 9.68476 110.027 9.26119V6.14493H101.392V9.60264C101.392 9.93544 101.456 10.1688 101.59 10.3028C101.724 10.4368 101.893 10.5016 102.105 10.5016H108.839V10.506Z" fill="#949494"/>
<path d="M126.378 8.40971H127.821V3.69426H130.047V18.6488C130.047 19.0162 129.944 19.3101 129.732 19.5262C129.524 19.738 129.226 19.8461 128.846 19.8461H127.821V10.0089H126.395C126.322 10.5794 126.153 11.0981 125.894 11.5605C125.634 12.023 125.315 12.4163 124.934 12.7318C124.541 13.0603 124.1 13.311 123.612 13.4839C123.123 13.6568 122.605 13.7389 122.06 13.7389C121.451 13.7389 120.88 13.6352 120.348 13.4234C119.813 13.2159 119.346 12.922 118.939 12.5373C118.546 12.144 118.235 11.6772 118.006 11.1326C117.777 10.5881 117.664 9.97 117.664 9.2871C117.664 8.6042 117.777 8.00343 118.006 7.45884C118.231 6.91425 118.546 6.44314 118.939 6.04982C119.346 5.66948 119.813 5.37125 120.348 5.15514C120.88 4.93904 121.451 4.83098 122.06 4.83098C123.123 4.83098 124.061 5.15082 124.874 5.7905C125.686 6.43449 126.188 7.30324 126.378 8.40539V8.40971ZM119.89 9.26549C119.89 10.1169 120.089 10.7955 120.5 11.3099C120.906 11.8242 121.425 12.0835 122.06 12.0835C122.695 12.0835 123.197 11.8242 123.599 11.3099C124.005 10.7955 124.208 10.1169 124.208 9.26549C124.208 8.41403 124.009 7.74842 123.599 7.22977C123.192 6.71111 122.678 6.45178 122.06 6.45178C121.442 6.45178 120.906 6.71111 120.5 7.22977C120.093 7.74842 119.89 8.427 119.89 9.26549ZM131.322 3.68994H133.548V18.6445C133.548 19.0119 133.445 19.3058 133.237 19.5219C133.025 19.7337 132.731 19.8417 132.351 19.8417H131.327V3.68994H131.322Z" fill="#949494"/>
<path d="M138.039 14.4957C137.52 14.4957 137.101 14.3314 136.777 13.9986C136.453 13.6702 136.293 13.2077 136.293 12.6112V4.39486H137.494C137.857 4.39486 138.151 4.50724 138.367 4.73631C138.584 4.96539 138.692 5.25065 138.692 5.59209V12.1963C138.692 12.46 138.748 12.6415 138.865 12.7366C138.977 12.8317 139.137 12.8792 139.34 12.8792H145.274V13.7739C145.274 14.003 145.205 14.1802 145.062 14.3055C144.924 14.4309 144.738 14.4957 144.509 14.4957H138.039ZM147.366 3.69036H149.782V18.6449C149.782 19.0123 149.678 19.3062 149.467 19.5223C149.259 19.7341 148.965 19.8422 148.581 19.8422H147.366V9.28319H142.439V7.67968H147.366V3.68604V3.69036Z" fill="#949494"/>
<path d="M161.958 4.58462V5.34532C161.958 5.62193 161.871 5.83372 161.711 5.97203C161.547 6.11033 161.37 6.18381 161.175 6.18381H158.764V8.75116C158.764 9.47295 158.885 10.1169 159.122 10.6702C159.36 11.2277 159.671 11.7118 160.052 12.1181C160.432 12.5373 160.856 12.8874 161.318 13.164C161.78 13.445 162.243 13.6697 162.697 13.8297L161.327 15.1609C160.834 15.0096 160.229 14.7114 159.52 14.2662C158.807 13.821 158.15 13.177 157.54 12.3256C156.918 13.177 156.252 13.821 155.544 14.2662C154.83 14.707 154.247 15.0053 153.793 15.1609L152.423 13.8297C152.851 13.6654 153.3 13.445 153.763 13.164C154.225 12.8874 154.649 12.5373 155.029 12.1181C155.41 11.7118 155.721 11.2277 155.971 10.6702C156.218 10.1126 156.343 9.47295 156.343 8.75116V6.18381H153.318V4.58462H161.958ZM164.581 3.68994H166.997V18.6445C166.997 19.0119 166.889 19.3058 166.686 19.5219C166.474 19.7337 166.18 19.8417 165.8 19.8417H164.586V3.68994H164.581Z" fill="#949494"/>
</svg>
