<svg width="122" height="31" viewBox="0 0 122 31" fill="none" xmlns="http://www.w3.org/2000/svg">
<path d="M33.2862 16.2924C36.3305 15.9957 39.3991 15.6819 42.3725 15.0017C46.0561 14.1592 49.315 12.4278 51.2416 8.92701C52.6948 6.28831 51.9834 3.91458 49.3394 2.44688C48.7477 2.11842 48.1095 1.84978 47.4641 1.64587C40.6582 -0.503184 33.2118 2.26738 28.8377 8.57534C28.0104 9.76831 27.2356 10.9967 26.2376 12.5108C25.7007 10.7793 25.414 9.45206 24.8869 8.22856C23.0701 4.00738 20.4127 0.490753 15.4517 0.16351C10.7005 -0.1503 5.91397 0.0865841 1.14207 0.0731525C0.075678 0.0694893 0.0158919 0.761826 0.0171121 1.5665C0.0219926 10.8856 0.0305334 20.2046 3.03089e-05 29.5237C-0.00363006 30.6117 0.323363 31.0195 1.4654 31C5.95546 30.9218 10.4467 30.9206 14.9368 30.9133C17.8029 30.9096 20.126 29.7093 21.9391 27.5932C23.0262 26.3246 23.8803 24.8569 24.9955 23.2524C27.437 30.4236 32.9849 31.7839 39.493 30.6166C44.5114 29.7167 47.5825 26.233 49.5273 21.698C45.7803 26.8081 42.0858 28.7093 39.8639 29.4163C39.2283 29.6568 38.5584 29.796 37.8849 29.8302C37.8068 29.8351 37.7641 29.8351 37.7641 29.8351C34.7785 29.9316 31.7538 27.9779 31.3926 23.7872C31.2328 21.9324 31.4158 20.0471 31.4475 18.1765C31.467 16.9737 31.96 16.4194 33.285 16.2912L33.2862 16.2924ZM32.4627 13.6793C33.1825 10.1114 34.4649 6.82924 37.2712 4.34806C38.9415 2.87058 40.8986 2.03172 43.1595 2.12574C45.4558 2.22098 46.5283 3.41762 46.4648 6.45682C46.2452 9.65842 44.0636 12.2666 40.5008 13.5743C38.3546 14.3619 36.0071 14.6183 33.7365 15.0445C32.7238 15.235 32.2418 14.7685 32.4614 13.6793H32.4627ZM19.8807 15.456C19.3817 18.2033 18.3568 20.6686 15.9605 22.3586C14.2938 23.5345 12.3892 23.9447 10.4602 23.6431C10.4114 23.6358 10.3613 23.6285 10.3113 23.6199C6.36176 22.7334 6.72048 22.9886 6.29099 23.0595C6.20924 23.0729 6.1275 23.1181 6.05185 23.1523C5.91275 23.217 5.7761 23.2878 5.64067 23.3586C5.29293 23.5406 4.94886 23.731 4.606 23.924C4.44982 24.0119 4.29365 24.101 4.13869 24.1902C3.93005 24.3098 3.73483 24.4405 3.49813 24.4979C3.39442 24.5235 3.15039 24.5919 3.06864 24.4857C3.0418 24.4502 3.04912 24.4051 3.06254 24.366C3.10891 24.2402 3.23214 24.1853 3.33951 24.123C3.47983 24.0412 3.61892 23.9582 3.75923 23.8764C4.02888 23.7176 4.29975 23.5589 4.5694 23.4001C5.08307 23.0973 5.59796 22.7957 6.11163 22.4929C6.55576 22.2316 7.00111 21.9691 7.44523 21.7078C12.9285 18.9409 14.3206 14.6171 14.3206 14.6171C12.3318 18.0849 8.02479 20.853 7.11214 21.4135C4.90493 19.6735 4.69995 17.2241 5.08917 14.7588C5.51743 12.037 7.65143 10.6499 10.1563 10.468C13.9204 10.1932 16.6901 8.48376 18.9473 5.64604C19.073 5.4873 19.2987 5.40793 19.8759 5.03185C20.4176 8.73896 20.4932 12.0956 19.8832 15.456H19.8807Z" fill="#949494"/>
<path d="M60.3512 19.5428V8.7084H66.231V10.5754H62.534V17.6746H62.6048C63.3795 17.6746 64.1592 17.616 64.9462 17.4988C65.7319 17.3815 66.4957 17.2289 67.2351 17.0409V18.8553C66.5543 19.0556 65.7441 19.2192 64.8059 19.3487C63.8664 19.4781 62.9281 19.5428 61.9898 19.5428H60.3524H60.3512ZM73.4309 23.6663H71.2835V15.0335H69.9109V23.2609H67.7805V7.51055H69.9109V13.1652H71.2835V7.3335H73.4309V23.6651V23.6663Z" fill="#949494"/>
<path d="M85.5602 15.0154C85.7127 14.0642 85.836 13.1338 85.9299 12.2229C86.0239 11.3132 86.0702 10.5403 86.0702 9.90654H77.5318V8.03955H88.2884C88.2884 9.2374 88.2323 10.4536 88.1212 11.6868C88.009 12.9201 87.8772 14.03 87.7247 15.0166H90.4187V16.8665H84.1168V23.5787H81.8986V16.8665H75.3148V15.0166H85.5602V15.0154Z" fill="#949494"/>
<path d="M99.9418 7.5103H101.949V23.2607H99.9418V14.7695H98.7265C98.668 16.5192 98.3483 17.8343 97.7675 18.7159C97.1867 19.5963 96.3265 20.0371 95.1882 20.0371C93.9912 20.0371 93.1042 19.5352 92.5295 18.5303C91.9548 17.5266 91.6669 16.0723 91.6669 14.1699C91.6669 12.2675 91.9512 10.773 92.521 9.79245C93.0895 8.81195 93.979 8.32108 95.1882 8.32108C96.2802 8.32108 97.1074 8.70327 97.6699 9.46643C98.2336 10.2296 98.574 11.3578 98.6911 12.8487H99.9405V7.5103H99.9418ZM96.6499 14.1699C96.6499 12.9135 96.5413 11.9415 96.3241 11.2541C96.1069 10.5666 95.7287 10.2235 95.1882 10.2235C94.6476 10.2235 94.3023 10.5666 94.1144 11.2541C93.9265 11.9415 93.8326 12.9135 93.8326 14.1699C93.8326 15.4264 93.9265 16.4167 94.1144 17.1029C94.3023 17.7903 94.6598 18.1335 95.1882 18.1335C95.7165 18.1335 96.1069 17.7903 96.3241 17.1029C96.5413 16.4154 96.6499 15.4386 96.6499 14.1699ZM105.118 23.6661H103.058V7.33447H105.118V23.6661Z" fill="#949494"/>
<path d="M113.955 15.8089V19.4904H121.823V21.3049H106.719V19.4904H111.737V15.8089H113.955ZM118.621 18.1521H116.455C116.62 17.5062 116.76 16.8541 116.877 16.1972C116.994 15.5391 117.094 14.8821 117.176 14.224C116.437 14.3302 115.691 14.4035 114.941 14.4438C114.189 14.4853 113.391 14.5061 112.547 14.5061H108.639V12.6916H112.864C113.674 12.6916 114.433 12.6769 115.143 12.6476C115.853 12.6183 116.584 12.5621 117.335 12.4803C117.358 12.1397 117.376 11.8087 117.387 11.4852C117.398 11.1628 117.41 10.8478 117.422 10.5425H108.867V8.71094H119.588C119.576 9.4741 119.547 10.2678 119.5 11.0895C119.454 11.9113 119.388 12.7343 119.306 13.5561C119.225 14.3778 119.124 15.1801 119.007 15.9603C118.89 16.7418 118.761 17.4732 118.621 18.1533V18.1521Z" fill="#949494"/>
</svg>
