<svg width="646" height="177" viewBox="0 0 646 177" fill="none" xmlns="http://www.w3.org/2000/svg">
<path d="M52.3272 74.1331L52.3272 13.7716L52.3271 13.7649L52.2487 2.01954L52.2421 1.02622H51.2488H8H4.44903L7.47816 2.87926C11.6125 5.4084 14.3447 8.52527 15.7673 12.2656L15.7673 12.2656L15.7694 12.271C17.2575 16.1173 18.0017 20.5784 18.0017 25.7004V174.955V175.955H19.0017H51.3272H52.3272V174.955V99.4593L105.753 175.295L106.052 175.719H106.571H146.004H147.956L146.816 174.135L79.8642 81.1553L142.656 2.6245L143.955 1H141.875H111.379H110.899L110.598 1.37488L52.3272 74.1331Z" stroke="black" stroke-opacity="0.06" stroke-width="2"/>
<path d="M292.377 126.485V126.899C292.377 134.817 291.054 141.606 288.361 147.227C285.716 152.802 282.181 157.427 277.78 161.142L277.778 161.145C273.4 164.813 268.489 167.624 263.025 169.603L263.021 169.604C257.612 171.537 252.225 172.968 246.808 173.896C241.411 174.82 236.163 175.376 231.091 175.509C226.043 175.666 221.748 175.745 218.233 175.745H169.627H168.627V174.745V25.7001C168.627 20.5795 167.884 16.1169 166.42 12.268C164.971 8.52371 162.236 5.40593 158.128 2.8775L155.119 1.02588H158.652H221.683C230.117 1.02588 238.112 1.60578 245.667 2.76784C253.265 3.93644 259.916 6.11936 265.603 9.30713L265.606 9.30887C271.333 12.5458 275.853 17.0819 279.155 22.8993L279.156 22.901C282.483 28.7897 284.093 36.3966 284.093 45.7038C284.093 50.6857 283.483 55.1707 282.216 59.118C280.964 63.0198 279.333 66.5152 277.261 69.5932C275.227 72.654 272.89 75.2977 270.195 77.5153M292.377 126.485L269.557 76.7451M292.377 126.485L292.35 126.458M292.377 126.485L292.35 126.458M270.195 77.5153C270.194 77.516 270.193 77.5166 270.192 77.5173L269.557 76.7451M270.195 77.5153C270.195 77.5149 270.196 77.5145 270.196 77.5142L269.557 76.7451M270.195 77.5153C268.156 79.2096 266.098 80.7137 264.046 82.0267M269.557 76.7451C267.337 78.5895 265.099 80.2023 262.873 81.5836C263.266 81.7273 263.657 81.875 264.046 82.0267M264.046 82.0267C263.691 82.2537 263.337 82.4749 262.982 82.6904C262.58 82.5395 262.176 82.3929 261.77 82.2507L292.059 126.166L292.085 126.192L292.35 126.458M264.046 82.0267C267.377 83.3269 270.562 84.9231 273.632 86.798L273.639 86.8024C277.328 89.0985 280.552 92.0661 283.312 95.6687L283.315 95.6725C286.06 99.2908 288.25 103.669 289.898 108.735L289.899 108.74C291.5 113.743 292.318 119.663 292.35 126.458M223.49 155.183C236 155.059 245.022 152.385 250.533 147.138L223.49 155.183ZM223.49 155.183C223.506 155.023 223.502 154.866 223.466 154.741L222.571 155.187V155.187C222.571 155.188 222.57 155.188 222.569 155.188C222.541 155.194 222.211 155.199 221.651 155.202C221.68 154.9 221.784 154.584 221.898 154.448C221.998 154.368 222.165 154.274 222.225 154.249C222.314 154.216 222.389 154.204 222.402 154.202L222.404 154.202C222.424 154.199 222.441 154.196 222.455 154.195C222.47 154.193 222.479 154.193 222.479 154.192C222.491 154.192 222.493 154.192 222.476 154.192C222.447 154.193 222.396 154.195 222.32 154.196C222.17 154.198 221.946 154.2 221.656 154.202C221.455 154.203 221.223 154.204 220.965 154.205M223.49 155.183L220.965 154.205M220.965 154.205L220.956 154.187H222.571C235.464 154.187 244.476 151.525 249.843 146.414L249.845 146.412C255.217 141.323 258.026 133.326 258.026 122.284V121.284H258.039C257.919 116.633 256.958 112.701 255.192 109.413C253.283 105.86 250.677 102.996 247.368 100.808L247.361 100.803C244.056 98.576 240.205 96.9946 235.788 96.0213C231.345 95.0423 226.584 94.5503 221.448 94.5503H202.247V154.189C202.826 154.191 203.63 154.193 204.585 154.194C206.586 154.199 209.254 154.203 211.92 154.207C214.587 154.21 217.253 154.212 219.249 154.209C219.9 154.208 220.48 154.207 220.965 154.205ZM240.081 66.7679L240.076 66.771C237.069 68.6313 233.459 69.9308 229.194 70.6737C224.892 71.4232 220.246 71.8125 215.254 71.8125H202.273V23.1885L203.882 23.191L209.628 23.2001L218.024 23.2132C228.632 23.2132 236.567 24.9355 241.904 28.2534C247.053 31.455 249.789 37.5078 249.794 46.8325C249.791 51.9265 248.895 56.0139 247.171 59.2019C245.421 62.436 243.059 64.9504 240.081 66.7679Z" stroke="black" stroke-opacity="0.06" stroke-width="2"/>
<path d="M313.334 12.2653L313.334 12.2653L313.336 12.2706C314.825 16.1169 315.569 20.5781 315.569 25.7001V174.771V175.771H316.569H349.129H350.129V174.771V13.7758V13.7712L350.234 2.03478L350.243 1.02588H349.234H305.567H302.035L305.043 2.8775C309.155 5.4087 311.913 8.527 313.334 12.2653Z" stroke="black" stroke-opacity="0.06" stroke-width="2"/>
<path d="M420.811 171.777L422.285 171.243L421.444 170.398V145.407V142.47V141.47H420.444H410.488H407.689L409.854 143.244C411.039 144.214 411.818 145.222 412.265 146.231C412.731 147.282 412.937 148.324 412.937 149.365V165.959C412.383 166.28 411.725 166.568 410.943 166.817C409.917 167.143 408.857 167.397 407.726 167.629C406.616 167.857 405.537 168.008 404.46 168.083L404.458 168.083C403.37 168.161 402.378 168.212 401.524 168.212C397.524 168.212 394.262 167.425 391.684 165.912C389.071 164.364 386.938 162.322 385.326 159.833L385.322 159.827C383.673 157.32 382.513 154.448 381.804 151.247C381.088 148.014 380.73 144.756 380.73 141.474C380.73 137.617 381.166 134.139 382.003 131.009C382.841 127.876 384.026 125.205 385.546 122.98C387.065 120.782 388.863 119.086 390.959 117.912L390.964 117.91C393.023 116.743 395.334 116.152 397.918 116.152C400.062 116.152 401.808 116.332 403.223 116.674C404.676 117.026 405.822 117.466 406.722 118.022L406.73 118.026L406.738 118.031C407.636 118.562 408.32 119.203 408.871 119.937C409.412 120.695 409.839 121.527 410.148 122.386L410.153 122.399L410.158 122.412C410.514 123.321 411.085 124.049 411.857 124.542L411.866 124.547L411.874 124.552C412.194 124.748 412.496 124.913 412.775 125.032C413.042 125.146 413.363 125.249 413.702 125.249H413.717L413.733 125.249L419.691 125.065L420.914 125.028L420.634 123.837C420.168 121.858 419.429 119.966 418.474 118.213C417.487 116.403 416.11 114.829 414.386 113.517L414.386 113.517L414.38 113.512C412.62 112.196 410.495 111.178 407.971 110.443L407.971 110.443L407.962 110.44C405.423 109.728 402.402 109.354 398.859 109.354C394.098 109.354 389.948 110.159 386.44 111.808C382.934 113.444 380.035 115.718 377.763 118.656C375.507 121.574 373.831 125 372.78 128.946C371.736 132.84 371.204 137.043 371.204 141.553C371.204 146.495 371.707 151.035 372.75 155.165C373.771 159.319 375.445 162.904 377.702 165.905C379.977 168.958 382.934 171.287 386.493 172.949C390.085 174.627 394.42 175.429 399.434 175.429C401.299 175.429 403.245 175.322 405.244 175.082C407.23 174.869 409.159 174.577 411.058 174.233C412.956 173.89 414.731 173.518 416.405 173.091C418.068 172.667 419.54 172.239 420.811 171.777Z" stroke="black" stroke-opacity="0.06" stroke-width="2"/>
<path d="M456.167 109.801H455.751L455.725 109.827H431.838H428.238L431.322 111.684C432.471 112.376 433.198 113.214 433.602 114.216L433.605 114.224L433.609 114.233C434.076 115.334 434.287 116.459 434.287 117.618V173.959V174.959H435.287H441.742H442.742V173.959V146.041H453.176L470.575 174.48L470.868 174.959H471.428H479.398H481.192L480.249 173.433L462.525 144.745C463.943 144.364 465.327 143.869 466.653 143.245C468.434 142.408 470.003 141.286 471.322 139.878C472.659 138.451 473.689 136.676 474.457 134.584C475.241 132.451 475.616 129.836 475.616 127.056C475.616 124.247 475.154 121.745 474.199 119.574L474.199 119.574L474.194 119.564C473.224 117.422 471.882 115.593 470.138 114.126C468.403 112.666 466.345 111.582 463.954 110.866C461.575 110.152 458.994 109.801 456.167 109.801ZM466.979 127.108V127.521L467.001 127.543C466.955 130.041 466.482 131.975 465.673 133.403C464.76 134.992 463.602 136.169 462.175 136.991C460.695 137.843 459.007 138.435 457.073 138.759C455.096 139.089 453.036 139.243 450.914 139.243H442.768V119.217C442.768 118.447 442.794 117.83 442.841 117.381L442.842 117.376C442.878 117.01 442.973 116.838 443.081 116.719L442.343 116.045L443.081 116.719C443.184 116.607 443.382 116.475 443.785 116.398L443.802 116.394L443.82 116.39C444.281 116.285 444.973 116.232 445.949 116.232H451.411C453.826 116.232 456.021 116.387 458 116.692C459.928 116.99 461.522 117.553 462.854 118.363C464.164 119.186 465.162 120.257 465.888 121.641C466.58 123.011 466.979 124.81 466.979 127.108Z" stroke="black" stroke-opacity="0.06" stroke-width="2"/>
<path d="M535.197 142.655V140.237L535.106 140.328C534.97 136.21 534.472 132.412 533.572 128.957C532.525 124.836 530.879 121.303 528.672 118.379C526.453 115.438 523.63 113.186 520.221 111.599L520.215 111.596C516.794 110.031 512.963 109.251 508.196 109.251C503.444 109.251 499.344 110 495.91 111.599C492.494 113.189 489.694 115.472 487.527 118.444C485.371 121.402 483.832 124.94 482.892 129.061C481.958 133.131 481.482 137.638 481.482 142.681C481.482 147.727 481.985 152.296 483.029 156.379L483.029 156.38C484.074 160.441 485.666 163.949 487.85 166.852L487.853 166.855C490.046 169.743 492.868 171.994 496.276 173.581C499.704 175.176 503.748 175.955 508.379 175.955C513.009 175.955 517.055 175.176 520.459 173.579C523.843 171.991 526.639 169.738 528.832 166.796C531.011 163.872 532.63 160.366 533.651 156.271C534.695 152.19 535.197 147.648 535.197 142.655ZM525.985 142.655V143.069L526.01 143.093C525.988 146.103 525.733 149.139 525.265 152.205C524.783 155.358 523.874 158.187 522.571 160.674L522.569 160.678C521.288 163.149 519.494 165.148 517.198 166.708C514.975 168.219 512.05 169.026 508.405 169.026C504.761 169.026 501.865 168.22 499.669 166.712C497.373 165.126 495.603 163.128 494.321 160.629C493.012 158.079 492.077 155.244 491.57 152.092L491.569 152.084C491.029 148.888 490.773 145.746 490.773 142.655C490.773 139.346 491.005 136.064 491.468 132.835C491.925 129.654 492.809 126.8 494.086 124.314C495.342 121.868 497.11 119.872 499.375 118.341C501.565 116.86 504.566 116.075 508.196 116.075C511.81 116.075 514.656 116.879 516.854 118.389C519.127 119.951 520.953 121.98 522.289 124.462L522.289 124.462L522.293 124.469C523.67 126.981 524.63 129.835 525.162 133.014C525.703 136.268 525.985 139.464 525.985 142.655Z" stroke="black" stroke-opacity="0.06" stroke-width="2"/>
<path d="M554.062 156.079L554.061 156.069C553.84 153.557 553.736 150.97 553.726 148.285L553.752 148.259V147.846V110.749V109.749H552.752H542.534H538.796L542.034 111.615C543.07 112.212 543.79 113.041 544.256 114.084C544.714 115.166 544.957 116.468 544.957 117.985V153.483C544.957 157.036 545.33 160.197 546.117 163.005C546.889 165.823 548.221 168.23 550.073 170.144L550.073 170.144C551.949 172.082 554.314 173.525 557.19 174.487C560.064 175.448 563.522 175.928 567.568 175.928C572.799 175.928 577.061 175.185 580.35 173.66L580.356 173.657C583.588 172.131 586.117 170.141 587.883 167.609C589.615 165.127 590.767 162.317 591.314 159.191C591.874 156.139 592.14 153.012 592.14 149.812V110.801V109.801H591.14H585.103H584.103V110.801V149.314C584.103 151.452 583.975 153.728 583.767 156.123C583.569 158.404 582.953 160.509 581.989 162.444C581.037 164.306 579.553 165.877 577.525 167.128C575.546 168.333 572.72 169 568.901 169C565.067 169 562.206 168.381 560.249 167.269C558.24 166.127 556.789 164.616 555.838 162.756C554.884 160.866 554.262 158.636 554.062 156.079Z" stroke="black" stroke-opacity="0.06" stroke-width="2"/>
<path d="M625.477 109.801H624.859L624.833 109.854H601.148H597.548L600.633 111.71C601.781 112.402 602.509 113.24 602.912 114.242C603.365 115.366 603.598 116.498 603.598 117.644V173.985V174.985H604.598H611.052H612.052V173.985V146.906H618.526C621.404 146.906 624.384 146.774 627.415 146.509C630.534 146.264 633.401 145.5 635.979 144.234C638.612 142.942 640.759 140.977 642.419 138.368L642.421 138.364C644.127 135.655 644.927 132.036 644.927 127.554C644.927 124.646 644.466 122.043 643.515 119.797L643.515 119.797L643.511 119.787C642.544 117.57 641.204 115.683 639.452 114.208C637.714 112.718 635.656 111.637 633.275 110.895C630.889 110.152 628.278 109.801 625.477 109.801ZM613.113 116.399L613.14 116.394L613.166 116.388C613.594 116.286 614.278 116.232 615.286 116.232H620.721C623.137 116.232 625.327 116.387 627.299 116.716C629.224 117.038 630.822 117.626 632.161 118.44C633.448 119.264 634.47 120.361 635.195 121.792C635.911 123.207 636.315 125.135 636.315 127.606V127.633C636.315 130.383 635.836 132.507 634.977 134.069C634.058 135.72 632.89 136.977 631.454 137.875L631.454 137.874L631.444 137.881C629.98 138.82 628.308 139.433 626.384 139.755C624.407 140.086 622.346 140.239 620.225 140.239H612.079V119.217C612.079 118.46 612.103 117.851 612.149 117.404C612.209 117.018 612.308 116.839 612.418 116.719L612.434 116.702L612.449 116.684C612.507 116.613 612.672 116.48 613.113 116.399Z" stroke="black" stroke-opacity="0.06" stroke-width="2"/>
</svg>
